<mxfile host="app.diagrams.net" modified="2024-01-15T08:06:22.074Z" agent="Mozilla/5.0 (Windows NT 10.0; Win64; x64) AppleWebKit/537.36 (KHTML, like Gecko) Chrome/120.0.0.0 Safari/537.36 Edg/120.0.0.0" etag="USzEuLmw9Q1e9ihQhJqh" version="22.1.18" type="github">
  <diagram id="C5RBs43oDa-KdzZeNtuy" name="Page-1">
    <mxGraphModel dx="1500" dy="773" grid="1" gridSize="10" guides="1" tooltips="1" connect="1" arrows="1" fold="1" page="1" pageScale="1" pageWidth="827" pageHeight="1169" math="0" shadow="0">
      <root>
        <mxCell id="WIyWlLk6GJQsqaUBKTNV-0" />
        <mxCell id="WIyWlLk6GJQsqaUBKTNV-1" parent="WIyWlLk6GJQsqaUBKTNV-0" />
        <mxCell id="zkfFHV4jXpPFQw0GAbJ--0" value="Users" style="swimlane;fontStyle=2;align=center;verticalAlign=top;childLayout=stackLayout;horizontal=1;startSize=26;horizontalStack=0;resizeParent=1;resizeLast=0;collapsible=1;marginBottom=0;rounded=0;shadow=0;strokeWidth=1;labelBackgroundColor=none;labelBorderColor=none;fillColor=#d5e8d4;strokeColor=#82b366;" parent="WIyWlLk6GJQsqaUBKTNV-1" vertex="1">
          <mxGeometry x="220" y="120" width="160" height="340" as="geometry">
            <mxRectangle x="230" y="140" width="160" height="26" as="alternateBounds" />
          </mxGeometry>
        </mxCell>
        <mxCell id="roXI1xCHheZBRgPUizIZ-2" value="user_id: String" style="text;align=left;verticalAlign=top;spacingLeft=4;spacingRight=4;overflow=hidden;rotatable=0;points=[[0,0.5],[1,0.5]];portConstraint=eastwest;rounded=0;shadow=0;html=0;" parent="zkfFHV4jXpPFQw0GAbJ--0" vertex="1">
          <mxGeometry y="26" width="160" height="26" as="geometry" />
        </mxCell>
        <mxCell id="roXI1xCHheZBRgPUizIZ-20" value="email: String" style="text;align=left;verticalAlign=top;spacingLeft=4;spacingRight=4;overflow=hidden;rotatable=0;points=[[0,0.5],[1,0.5]];portConstraint=eastwest;rounded=0;shadow=0;html=0;" parent="zkfFHV4jXpPFQw0GAbJ--0" vertex="1">
          <mxGeometry y="52" width="160" height="26" as="geometry" />
        </mxCell>
        <mxCell id="zkfFHV4jXpPFQw0GAbJ--1" value="image: String" style="text;align=left;verticalAlign=top;spacingLeft=4;spacingRight=4;overflow=hidden;rotatable=0;points=[[0,0.5],[1,0.5]];portConstraint=eastwest;" parent="zkfFHV4jXpPFQw0GAbJ--0" vertex="1">
          <mxGeometry y="78" width="160" height="26" as="geometry" />
        </mxCell>
        <mxCell id="zkfFHV4jXpPFQw0GAbJ--2" value="isDisabled: boolean" style="text;align=left;verticalAlign=top;spacingLeft=4;spacingRight=4;overflow=hidden;rotatable=0;points=[[0,0.5],[1,0.5]];portConstraint=eastwest;rounded=0;shadow=0;html=0;" parent="zkfFHV4jXpPFQw0GAbJ--0" vertex="1">
          <mxGeometry y="104" width="160" height="26" as="geometry" />
        </mxCell>
        <mxCell id="zkfFHV4jXpPFQw0GAbJ--3" value="role: String" style="text;align=left;verticalAlign=top;spacingLeft=4;spacingRight=4;overflow=hidden;rotatable=0;points=[[0,0.5],[1,0.5]];portConstraint=eastwest;rounded=0;shadow=0;html=0;" parent="zkfFHV4jXpPFQw0GAbJ--0" vertex="1">
          <mxGeometry y="130" width="160" height="26" as="geometry" />
        </mxCell>
        <mxCell id="roXI1xCHheZBRgPUizIZ-0" value="user_address: String" style="text;align=left;verticalAlign=top;spacingLeft=4;spacingRight=4;overflow=hidden;rotatable=0;points=[[0,0.5],[1,0.5]];portConstraint=eastwest;rounded=0;shadow=0;html=0;" parent="zkfFHV4jXpPFQw0GAbJ--0" vertex="1">
          <mxGeometry y="156" width="160" height="26" as="geometry" />
        </mxCell>
        <mxCell id="roXI1xCHheZBRgPUizIZ-1" value="user_date: String" style="text;align=left;verticalAlign=top;spacingLeft=4;spacingRight=4;overflow=hidden;rotatable=0;points=[[0,0.5],[1,0.5]];portConstraint=eastwest;rounded=0;shadow=0;html=0;" parent="zkfFHV4jXpPFQw0GAbJ--0" vertex="1">
          <mxGeometry y="182" width="160" height="26" as="geometry" />
        </mxCell>
        <mxCell id="roXI1xCHheZBRgPUizIZ-3" value="user_location: String" style="text;align=left;verticalAlign=top;spacingLeft=4;spacingRight=4;overflow=hidden;rotatable=0;points=[[0,0.5],[1,0.5]];portConstraint=eastwest;rounded=0;shadow=0;html=0;" parent="zkfFHV4jXpPFQw0GAbJ--0" vertex="1">
          <mxGeometry y="208" width="160" height="26" as="geometry" />
        </mxCell>
        <mxCell id="roXI1xCHheZBRgPUizIZ-4" value="user_name: String" style="text;align=left;verticalAlign=top;spacingLeft=4;spacingRight=4;overflow=hidden;rotatable=0;points=[[0,0.5],[1,0.5]];portConstraint=eastwest;rounded=0;shadow=0;html=0;" parent="zkfFHV4jXpPFQw0GAbJ--0" vertex="1">
          <mxGeometry y="234" width="160" height="26" as="geometry" />
        </mxCell>
        <mxCell id="roXI1xCHheZBRgPUizIZ-5" value="user_origin: String" style="text;align=left;verticalAlign=top;spacingLeft=4;spacingRight=4;overflow=hidden;rotatable=0;points=[[0,0.5],[1,0.5]];portConstraint=eastwest;rounded=0;shadow=0;html=0;" parent="zkfFHV4jXpPFQw0GAbJ--0" vertex="1">
          <mxGeometry y="260" width="160" height="26" as="geometry" />
        </mxCell>
        <mxCell id="roXI1xCHheZBRgPUizIZ-6" value="user_phone: Number" style="text;align=left;verticalAlign=top;spacingLeft=4;spacingRight=4;overflow=hidden;rotatable=0;points=[[0,0.5],[1,0.5]];portConstraint=eastwest;rounded=0;shadow=0;html=0;" parent="zkfFHV4jXpPFQw0GAbJ--0" vertex="1">
          <mxGeometry y="286" width="160" height="26" as="geometry" />
        </mxCell>
        <mxCell id="roXI1xCHheZBRgPUizIZ-7" value="username: String" style="text;align=left;verticalAlign=top;spacingLeft=4;spacingRight=4;overflow=hidden;rotatable=0;points=[[0,0.5],[1,0.5]];portConstraint=eastwest;rounded=0;shadow=0;html=0;" parent="zkfFHV4jXpPFQw0GAbJ--0" vertex="1">
          <mxGeometry y="312" width="160" height="26" as="geometry" />
        </mxCell>
        <mxCell id="roXI1xCHheZBRgPUizIZ-8" value="Vendor" style="swimlane;fontStyle=2;align=center;verticalAlign=top;childLayout=stackLayout;horizontal=1;startSize=26;horizontalStack=0;resizeParent=1;resizeLast=0;collapsible=1;marginBottom=0;rounded=0;shadow=0;strokeWidth=1;labelBackgroundColor=none;labelBorderColor=none;fillColor=#d5e8d4;strokeColor=#82b366;" parent="WIyWlLk6GJQsqaUBKTNV-1" vertex="1">
          <mxGeometry x="414" y="120" width="160" height="190" as="geometry">
            <mxRectangle x="230" y="140" width="160" height="26" as="alternateBounds" />
          </mxGeometry>
        </mxCell>
        <mxCell id="roXI1xCHheZBRgPUizIZ-14" value="user_id: String" style="text;align=left;verticalAlign=top;spacingLeft=4;spacingRight=4;overflow=hidden;rotatable=0;points=[[0,0.5],[1,0.5]];portConstraint=eastwest;rounded=0;shadow=0;html=0;" parent="roXI1xCHheZBRgPUizIZ-8" vertex="1">
          <mxGeometry y="26" width="160" height="26" as="geometry" />
        </mxCell>
        <mxCell id="roXI1xCHheZBRgPUizIZ-12" value="vendor_address: String" style="text;align=left;verticalAlign=top;spacingLeft=4;spacingRight=4;overflow=hidden;rotatable=0;points=[[0,0.5],[1,0.5]];portConstraint=eastwest;rounded=0;shadow=0;html=0;" parent="roXI1xCHheZBRgPUizIZ-8" vertex="1">
          <mxGeometry y="52" width="160" height="26" as="geometry" />
        </mxCell>
        <mxCell id="roXI1xCHheZBRgPUizIZ-16" value="vendor_name: String" style="text;align=left;verticalAlign=top;spacingLeft=4;spacingRight=4;overflow=hidden;rotatable=0;points=[[0,0.5],[1,0.5]];portConstraint=eastwest;rounded=0;shadow=0;html=0;" parent="roXI1xCHheZBRgPUizIZ-8" vertex="1">
          <mxGeometry y="78" width="160" height="26" as="geometry" />
        </mxCell>
        <mxCell id="roXI1xCHheZBRgPUizIZ-17" value="vendor_origin: String" style="text;align=left;verticalAlign=top;spacingLeft=4;spacingRight=4;overflow=hidden;rotatable=0;points=[[0,0.5],[1,0.5]];portConstraint=eastwest;rounded=0;shadow=0;html=0;" parent="roXI1xCHheZBRgPUizIZ-8" vertex="1">
          <mxGeometry y="104" width="160" height="26" as="geometry" />
        </mxCell>
        <mxCell id="roXI1xCHheZBRgPUizIZ-18" value="vendor_phone: Number" style="text;align=left;verticalAlign=top;spacingLeft=4;spacingRight=4;overflow=hidden;rotatable=0;points=[[0,0.5],[1,0.5]];portConstraint=eastwest;rounded=0;shadow=0;html=0;" parent="roXI1xCHheZBRgPUizIZ-8" vertex="1">
          <mxGeometry y="130" width="160" height="26" as="geometry" />
        </mxCell>
        <mxCell id="roXI1xCHheZBRgPUizIZ-21" value="vendor_email: String" style="text;align=left;verticalAlign=top;spacingLeft=4;spacingRight=4;overflow=hidden;rotatable=0;points=[[0,0.5],[1,0.5]];portConstraint=eastwest;rounded=0;shadow=0;html=0;" parent="roXI1xCHheZBRgPUizIZ-8" vertex="1">
          <mxGeometry y="156" width="160" height="26" as="geometry" />
        </mxCell>
        <mxCell id="roXI1xCHheZBRgPUizIZ-22" value="Status" style="swimlane;fontStyle=2;align=center;verticalAlign=top;childLayout=stackLayout;horizontal=1;startSize=26;horizontalStack=0;resizeParent=1;resizeLast=0;collapsible=1;marginBottom=0;rounded=0;shadow=0;strokeWidth=1;labelBackgroundColor=none;labelBorderColor=none;fillColor=#d5e8d4;strokeColor=#82b366;" parent="WIyWlLk6GJQsqaUBKTNV-1" vertex="1">
          <mxGeometry x="620" y="120" width="160" height="110" as="geometry">
            <mxRectangle x="230" y="140" width="160" height="26" as="alternateBounds" />
          </mxGeometry>
        </mxCell>
        <mxCell id="roXI1xCHheZBRgPUizIZ-23" value="status_id: String" style="text;align=left;verticalAlign=top;spacingLeft=4;spacingRight=4;overflow=hidden;rotatable=0;points=[[0,0.5],[1,0.5]];portConstraint=eastwest;rounded=0;shadow=0;html=0;" parent="roXI1xCHheZBRgPUizIZ-22" vertex="1">
          <mxGeometry y="26" width="160" height="26" as="geometry" />
        </mxCell>
        <mxCell id="roXI1xCHheZBRgPUizIZ-24" value="status_code: String" style="text;align=left;verticalAlign=top;spacingLeft=4;spacingRight=4;overflow=hidden;rotatable=0;points=[[0,0.5],[1,0.5]];portConstraint=eastwest;rounded=0;shadow=0;html=0;" parent="roXI1xCHheZBRgPUizIZ-22" vertex="1">
          <mxGeometry y="52" width="160" height="26" as="geometry" />
        </mxCell>
        <mxCell id="roXI1xCHheZBRgPUizIZ-25" value="color: String" style="text;align=left;verticalAlign=top;spacingLeft=4;spacingRight=4;overflow=hidden;rotatable=0;points=[[0,0.5],[1,0.5]];portConstraint=eastwest;rounded=0;shadow=0;html=0;" parent="roXI1xCHheZBRgPUizIZ-22" vertex="1">
          <mxGeometry y="78" width="160" height="26" as="geometry" />
        </mxCell>
        <mxCell id="roXI1xCHheZBRgPUizIZ-29" value="Products" style="swimlane;fontStyle=2;align=center;verticalAlign=top;childLayout=stackLayout;horizontal=1;startSize=26;horizontalStack=0;resizeParent=1;resizeLast=0;collapsible=1;marginBottom=0;rounded=0;shadow=0;strokeWidth=1;labelBackgroundColor=none;labelBorderColor=none;fillColor=#d5e8d4;strokeColor=#82b366;" parent="WIyWlLk6GJQsqaUBKTNV-1" vertex="1">
          <mxGeometry x="20" y="120" width="160" height="390" as="geometry">
            <mxRectangle x="230" y="140" width="160" height="26" as="alternateBounds" />
          </mxGeometry>
        </mxCell>
        <mxCell id="roXI1xCHheZBRgPUizIZ-30" value="product_id: String" style="text;align=left;verticalAlign=top;spacingLeft=4;spacingRight=4;overflow=hidden;rotatable=0;points=[[0,0.5],[1,0.5]];portConstraint=eastwest;rounded=0;shadow=0;html=0;" parent="roXI1xCHheZBRgPUizIZ-29" vertex="1">
          <mxGeometry y="26" width="160" height="26" as="geometry" />
        </mxCell>
        <mxCell id="roXI1xCHheZBRgPUizIZ-31" value="image: String" style="text;align=left;verticalAlign=top;spacingLeft=4;spacingRight=4;overflow=hidden;rotatable=0;points=[[0,0.5],[1,0.5]];portConstraint=eastwest;" parent="roXI1xCHheZBRgPUizIZ-29" vertex="1">
          <mxGeometry y="52" width="160" height="26" as="geometry" />
        </mxCell>
        <mxCell id="roXI1xCHheZBRgPUizIZ-32" value="created_at: timestamp" style="text;align=left;verticalAlign=top;spacingLeft=4;spacingRight=4;overflow=hidden;rotatable=0;points=[[0,0.5],[1,0.5]];portConstraint=eastwest;rounded=0;shadow=0;html=0;" parent="roXI1xCHheZBRgPUizIZ-29" vertex="1">
          <mxGeometry y="78" width="160" height="26" as="geometry" />
        </mxCell>
        <mxCell id="roXI1xCHheZBRgPUizIZ-33" value="category: String" style="text;align=left;verticalAlign=top;spacingLeft=4;spacingRight=4;overflow=hidden;rotatable=0;points=[[0,0.5],[1,0.5]];portConstraint=eastwest;rounded=0;shadow=0;html=0;" parent="roXI1xCHheZBRgPUizIZ-29" vertex="1">
          <mxGeometry y="104" width="160" height="26" as="geometry" />
        </mxCell>
        <mxCell id="roXI1xCHheZBRgPUizIZ-34" value="name: String" style="text;align=left;verticalAlign=top;spacingLeft=4;spacingRight=4;overflow=hidden;rotatable=0;points=[[0,0.5],[1,0.5]];portConstraint=eastwest;rounded=0;shadow=0;html=0;" parent="roXI1xCHheZBRgPUizIZ-29" vertex="1">
          <mxGeometry y="130" width="160" height="26" as="geometry" />
        </mxCell>
        <mxCell id="roXI1xCHheZBRgPUizIZ-35" value="kilo: number" style="text;align=left;verticalAlign=top;spacingLeft=4;spacingRight=4;overflow=hidden;rotatable=0;points=[[0,0.5],[1,0.5]];portConstraint=eastwest;rounded=0;shadow=0;html=0;" parent="roXI1xCHheZBRgPUizIZ-29" vertex="1">
          <mxGeometry y="156" width="160" height="26" as="geometry" />
        </mxCell>
        <mxCell id="roXI1xCHheZBRgPUizIZ-36" value="note: String" style="text;align=left;verticalAlign=top;spacingLeft=4;spacingRight=4;overflow=hidden;rotatable=0;points=[[0,0.5],[1,0.5]];portConstraint=eastwest;rounded=0;shadow=0;html=0;" parent="roXI1xCHheZBRgPUizIZ-29" vertex="1">
          <mxGeometry y="182" width="160" height="26" as="geometry" />
        </mxCell>
        <mxCell id="roXI1xCHheZBRgPUizIZ-37" value="price: number" style="text;align=left;verticalAlign=top;spacingLeft=4;spacingRight=4;overflow=hidden;rotatable=0;points=[[0,0.5],[1,0.5]];portConstraint=eastwest;rounded=0;shadow=0;html=0;" parent="roXI1xCHheZBRgPUizIZ-29" vertex="1">
          <mxGeometry y="208" width="160" height="26" as="geometry" />
        </mxCell>
        <mxCell id="roXI1xCHheZBRgPUizIZ-38" value="quantity: number" style="text;align=left;verticalAlign=top;spacingLeft=4;spacingRight=4;overflow=hidden;rotatable=0;points=[[0,0.5],[1,0.5]];portConstraint=eastwest;rounded=0;shadow=0;html=0;" parent="roXI1xCHheZBRgPUizIZ-29" vertex="1">
          <mxGeometry y="234" width="160" height="26" as="geometry" />
        </mxCell>
        <mxCell id="roXI1xCHheZBRgPUizIZ-39" value="quantity_buy: number" style="text;align=left;verticalAlign=top;spacingLeft=4;spacingRight=4;overflow=hidden;rotatable=0;points=[[0,0.5],[1,0.5]];portConstraint=eastwest;rounded=0;shadow=0;html=0;" parent="roXI1xCHheZBRgPUizIZ-29" vertex="1">
          <mxGeometry y="260" width="160" height="26" as="geometry" />
        </mxCell>
        <mxCell id="roXI1xCHheZBRgPUizIZ-40" value="sort_timestamp: timestamp" style="text;align=left;verticalAlign=top;spacingLeft=4;spacingRight=4;overflow=hidden;rotatable=0;points=[[0,0.5],[1,0.5]];portConstraint=eastwest;rounded=0;shadow=0;html=0;" parent="roXI1xCHheZBRgPUizIZ-29" vertex="1">
          <mxGeometry y="286" width="160" height="26" as="geometry" />
        </mxCell>
        <mxCell id="roXI1xCHheZBRgPUizIZ-41" value="update_at: timestamp" style="text;align=left;verticalAlign=top;spacingLeft=4;spacingRight=4;overflow=hidden;rotatable=0;points=[[0,0.5],[1,0.5]];portConstraint=eastwest;rounded=0;shadow=0;html=0;" parent="roXI1xCHheZBRgPUizIZ-29" vertex="1">
          <mxGeometry y="312" width="160" height="26" as="geometry" />
        </mxCell>
        <mxCell id="VnIIEGHj8XKcr8KL7Oaz-0" value="user: String" style="text;align=left;verticalAlign=top;spacingLeft=4;spacingRight=4;overflow=hidden;rotatable=0;points=[[0,0.5],[1,0.5]];portConstraint=eastwest;rounded=0;shadow=0;html=0;" parent="roXI1xCHheZBRgPUizIZ-29" vertex="1">
          <mxGeometry y="338" width="160" height="26" as="geometry" />
        </mxCell>
        <mxCell id="VnIIEGHj8XKcr8KL7Oaz-1" value="vendor_id: String" style="text;align=left;verticalAlign=top;spacingLeft=4;spacingRight=4;overflow=hidden;rotatable=0;points=[[0,0.5],[1,0.5]];portConstraint=eastwest;rounded=0;shadow=0;html=0;" parent="roXI1xCHheZBRgPUizIZ-29" vertex="1">
          <mxGeometry y="364" width="160" height="26" as="geometry" />
        </mxCell>
        <mxCell id="VnIIEGHj8XKcr8KL7Oaz-2" value="Orgin" style="swimlane;fontStyle=2;align=center;verticalAlign=top;childLayout=stackLayout;horizontal=1;startSize=26;horizontalStack=0;resizeParent=1;resizeLast=0;collapsible=1;marginBottom=0;rounded=0;shadow=0;strokeWidth=1;labelBackgroundColor=none;labelBorderColor=none;fillColor=#d5e8d4;strokeColor=#82b366;" parent="WIyWlLk6GJQsqaUBKTNV-1" vertex="1">
          <mxGeometry x="414" y="330" width="160" height="130" as="geometry">
            <mxRectangle x="230" y="140" width="160" height="26" as="alternateBounds" />
          </mxGeometry>
        </mxCell>
        <mxCell id="VnIIEGHj8XKcr8KL7Oaz-3" value="origin_id: String" style="text;align=left;verticalAlign=top;spacingLeft=4;spacingRight=4;overflow=hidden;rotatable=0;points=[[0,0.5],[1,0.5]];portConstraint=eastwest;rounded=0;shadow=0;html=0;" parent="VnIIEGHj8XKcr8KL7Oaz-2" vertex="1">
          <mxGeometry y="26" width="160" height="26" as="geometry" />
        </mxCell>
        <mxCell id="VnIIEGHj8XKcr8KL7Oaz-4" value="name: String" style="text;align=left;verticalAlign=top;spacingLeft=4;spacingRight=4;overflow=hidden;rotatable=0;points=[[0,0.5],[1,0.5]];portConstraint=eastwest;rounded=0;shadow=0;html=0;" parent="VnIIEGHj8XKcr8KL7Oaz-2" vertex="1">
          <mxGeometry y="52" width="160" height="26" as="geometry" />
        </mxCell>
        <mxCell id="VnIIEGHj8XKcr8KL7Oaz-5" value="created_at: timestamp" style="text;align=left;verticalAlign=top;spacingLeft=4;spacingRight=4;overflow=hidden;rotatable=0;points=[[0,0.5],[1,0.5]];portConstraint=eastwest;rounded=0;shadow=0;html=0;" parent="VnIIEGHj8XKcr8KL7Oaz-2" vertex="1">
          <mxGeometry y="78" width="160" height="26" as="geometry" />
        </mxCell>
        <mxCell id="VnIIEGHj8XKcr8KL7Oaz-6" value="user_id: String" style="text;align=left;verticalAlign=top;spacingLeft=4;spacingRight=4;overflow=hidden;rotatable=0;points=[[0,0.5],[1,0.5]];portConstraint=eastwest;rounded=0;shadow=0;html=0;" parent="VnIIEGHj8XKcr8KL7Oaz-2" vertex="1">
          <mxGeometry y="104" width="160" height="26" as="geometry" />
        </mxCell>
        <mxCell id="VnIIEGHj8XKcr8KL7Oaz-7" value="Order" style="swimlane;fontStyle=2;align=center;verticalAlign=top;childLayout=stackLayout;horizontal=1;startSize=26;horizontalStack=0;resizeParent=1;resizeLast=0;collapsible=1;marginBottom=0;rounded=0;shadow=0;strokeWidth=1;labelBackgroundColor=none;labelBorderColor=none;fillColor=#d5e8d4;strokeColor=#82b366;" parent="WIyWlLk6GJQsqaUBKTNV-1" vertex="1">
          <mxGeometry x="620" y="250" width="160" height="312" as="geometry">
            <mxRectangle x="230" y="140" width="160" height="26" as="alternateBounds" />
          </mxGeometry>
        </mxCell>
        <mxCell id="VnIIEGHj8XKcr8KL7Oaz-17" value="user_id: String" style="text;align=left;verticalAlign=top;spacingLeft=4;spacingRight=4;overflow=hidden;rotatable=0;points=[[0,0.5],[1,0.5]];portConstraint=eastwest;rounded=0;shadow=0;html=0;" parent="VnIIEGHj8XKcr8KL7Oaz-7" vertex="1">
          <mxGeometry y="26" width="160" height="26" as="geometry" />
        </mxCell>
        <mxCell id="VnIIEGHj8XKcr8KL7Oaz-18" value="vendor_id: String" style="text;align=left;verticalAlign=top;spacingLeft=4;spacingRight=4;overflow=hidden;rotatable=0;points=[[0,0.5],[1,0.5]];portConstraint=eastwest;rounded=0;shadow=0;html=0;" parent="VnIIEGHj8XKcr8KL7Oaz-7" vertex="1">
          <mxGeometry y="52" width="160" height="26" as="geometry" />
        </mxCell>
        <mxCell id="VnIIEGHj8XKcr8KL7Oaz-8" value="orderItems: array []" style="text;align=left;verticalAlign=top;spacingLeft=4;spacingRight=4;overflow=hidden;rotatable=0;points=[[0,0.5],[1,0.5]];portConstraint=eastwest;rounded=0;shadow=0;html=0;" parent="VnIIEGHj8XKcr8KL7Oaz-7" vertex="1">
          <mxGeometry y="78" width="160" height="26" as="geometry" />
        </mxCell>
        <mxCell id="VnIIEGHj8XKcr8KL7Oaz-9" value="order_name: String" style="text;align=left;verticalAlign=top;spacingLeft=4;spacingRight=4;overflow=hidden;rotatable=0;points=[[0,0.5],[1,0.5]];portConstraint=eastwest;rounded=0;shadow=0;html=0;" parent="VnIIEGHj8XKcr8KL7Oaz-7" vertex="1">
          <mxGeometry y="104" width="160" height="26" as="geometry" />
        </mxCell>
        <mxCell id="VnIIEGHj8XKcr8KL7Oaz-10" value="order_address: String" style="text;align=left;verticalAlign=top;spacingLeft=4;spacingRight=4;overflow=hidden;rotatable=0;points=[[0,0.5],[1,0.5]];portConstraint=eastwest;rounded=0;shadow=0;html=0;" parent="VnIIEGHj8XKcr8KL7Oaz-7" vertex="1">
          <mxGeometry y="130" width="160" height="26" as="geometry" />
        </mxCell>
        <mxCell id="VnIIEGHj8XKcr8KL7Oaz-11" value="order_phone: number" style="text;align=left;verticalAlign=top;spacingLeft=4;spacingRight=4;overflow=hidden;rotatable=0;points=[[0,0.5],[1,0.5]];portConstraint=eastwest;rounded=0;shadow=0;html=0;" parent="VnIIEGHj8XKcr8KL7Oaz-7" vertex="1">
          <mxGeometry y="156" width="160" height="26" as="geometry" />
        </mxCell>
        <mxCell id="VnIIEGHj8XKcr8KL7Oaz-12" value="order_origin: String" style="text;align=left;verticalAlign=top;spacingLeft=4;spacingRight=4;overflow=hidden;rotatable=0;points=[[0,0.5],[1,0.5]];portConstraint=eastwest;rounded=0;shadow=0;html=0;" parent="VnIIEGHj8XKcr8KL7Oaz-7" vertex="1">
          <mxGeometry y="182" width="160" height="26" as="geometry" />
        </mxCell>
        <mxCell id="VnIIEGHj8XKcr8KL7Oaz-13" value="order_at: timestamp" style="text;align=left;verticalAlign=top;spacingLeft=4;spacingRight=4;overflow=hidden;rotatable=0;points=[[0,0.5],[1,0.5]];portConstraint=eastwest;rounded=0;shadow=0;html=0;" parent="VnIIEGHj8XKcr8KL7Oaz-7" vertex="1">
          <mxGeometry y="208" width="160" height="26" as="geometry" />
        </mxCell>
        <mxCell id="VnIIEGHj8XKcr8KL7Oaz-14" value="payment_method: String" style="text;align=left;verticalAlign=top;spacingLeft=4;spacingRight=4;overflow=hidden;rotatable=0;points=[[0,0.5],[1,0.5]];portConstraint=eastwest;rounded=0;shadow=0;html=0;" parent="VnIIEGHj8XKcr8KL7Oaz-7" vertex="1">
          <mxGeometry y="234" width="160" height="26" as="geometry" />
        </mxCell>
        <mxCell id="VnIIEGHj8XKcr8KL7Oaz-15" value="status: String" style="text;align=left;verticalAlign=top;spacingLeft=4;spacingRight=4;overflow=hidden;rotatable=0;points=[[0,0.5],[1,0.5]];portConstraint=eastwest;rounded=0;shadow=0;html=0;" parent="VnIIEGHj8XKcr8KL7Oaz-7" vertex="1">
          <mxGeometry y="260" width="160" height="26" as="geometry" />
        </mxCell>
        <mxCell id="VnIIEGHj8XKcr8KL7Oaz-16" value="totalAmount: String" style="text;align=left;verticalAlign=top;spacingLeft=4;spacingRight=4;overflow=hidden;rotatable=0;points=[[0,0.5],[1,0.5]];portConstraint=eastwest;rounded=0;shadow=0;html=0;" parent="VnIIEGHj8XKcr8KL7Oaz-7" vertex="1">
          <mxGeometry y="286" width="160" height="26" as="geometry" />
        </mxCell>
        <mxCell id="VnIIEGHj8XKcr8KL7Oaz-31" value="Favorite" style="swimlane;fontStyle=2;align=center;verticalAlign=top;childLayout=stackLayout;horizontal=1;startSize=26;horizontalStack=0;resizeParent=1;resizeLast=0;collapsible=1;marginBottom=0;rounded=0;shadow=0;strokeWidth=1;labelBackgroundColor=none;labelBorderColor=none;fillColor=#d5e8d4;strokeColor=#82b366;" parent="WIyWlLk6GJQsqaUBKTNV-1" vertex="1">
          <mxGeometry x="220" y="470" width="160" height="60" as="geometry">
            <mxRectangle x="230" y="140" width="160" height="26" as="alternateBounds" />
          </mxGeometry>
        </mxCell>
        <mxCell id="VnIIEGHj8XKcr8KL7Oaz-33" value="products: array []" style="text;align=left;verticalAlign=top;spacingLeft=4;spacingRight=4;overflow=hidden;rotatable=0;points=[[0,0.5],[1,0.5]];portConstraint=eastwest;rounded=0;shadow=0;html=0;" parent="VnIIEGHj8XKcr8KL7Oaz-31" vertex="1">
          <mxGeometry y="26" width="160" height="26" as="geometry" />
        </mxCell>
        <mxCell id="VnIIEGHj8XKcr8KL7Oaz-35" value="Chat" style="swimlane;fontStyle=2;align=center;verticalAlign=top;childLayout=stackLayout;horizontal=1;startSize=26;horizontalStack=0;resizeParent=1;resizeLast=0;collapsible=1;marginBottom=0;rounded=0;shadow=0;strokeWidth=1;labelBackgroundColor=none;labelBorderColor=none;fillColor=#d5e8d4;strokeColor=#82b366;" parent="WIyWlLk6GJQsqaUBKTNV-1" vertex="1">
          <mxGeometry x="220" y="550" width="160" height="156" as="geometry">
            <mxRectangle x="230" y="140" width="160" height="26" as="alternateBounds" />
          </mxGeometry>
        </mxCell>
        <mxCell id="VnIIEGHj8XKcr8KL7Oaz-36" value="userid: String" style="text;align=left;verticalAlign=top;spacingLeft=4;spacingRight=4;overflow=hidden;rotatable=0;points=[[0,0.5],[1,0.5]];portConstraint=eastwest;rounded=0;shadow=0;html=0;" parent="VnIIEGHj8XKcr8KL7Oaz-35" vertex="1">
          <mxGeometry y="26" width="160" height="26" as="geometry" />
        </mxCell>
        <mxCell id="VnIIEGHj8XKcr8KL7Oaz-37" value="Text: String" style="text;align=left;verticalAlign=top;spacingLeft=4;spacingRight=4;overflow=hidden;rotatable=0;points=[[0,0.5],[1,0.5]];portConstraint=eastwest;rounded=0;shadow=0;html=0;" parent="VnIIEGHj8XKcr8KL7Oaz-35" vertex="1">
          <mxGeometry y="52" width="160" height="26" as="geometry" />
        </mxCell>
        <mxCell id="VnIIEGHj8XKcr8KL7Oaz-38" value="userimage: String" style="text;align=left;verticalAlign=top;spacingLeft=4;spacingRight=4;overflow=hidden;rotatable=0;points=[[0,0.5],[1,0.5]];portConstraint=eastwest;rounded=0;shadow=0;html=0;" parent="VnIIEGHj8XKcr8KL7Oaz-35" vertex="1">
          <mxGeometry y="78" width="160" height="26" as="geometry" />
        </mxCell>
        <mxCell id="VnIIEGHj8XKcr8KL7Oaz-39" value="username: String" style="text;align=left;verticalAlign=top;spacingLeft=4;spacingRight=4;overflow=hidden;rotatable=0;points=[[0,0.5],[1,0.5]];portConstraint=eastwest;rounded=0;shadow=0;html=0;" parent="VnIIEGHj8XKcr8KL7Oaz-35" vertex="1">
          <mxGeometry y="104" width="160" height="26" as="geometry" />
        </mxCell>
        <mxCell id="VnIIEGHj8XKcr8KL7Oaz-40" value="time: timestamp" style="text;align=left;verticalAlign=top;spacingLeft=4;spacingRight=4;overflow=hidden;rotatable=0;points=[[0,0.5],[1,0.5]];portConstraint=eastwest;rounded=0;shadow=0;html=0;" parent="VnIIEGHj8XKcr8KL7Oaz-35" vertex="1">
          <mxGeometry y="130" width="160" height="26" as="geometry" />
        </mxCell>
        <mxCell id="VnIIEGHj8XKcr8KL7Oaz-41" value="Category" style="swimlane;fontStyle=2;align=center;verticalAlign=top;childLayout=stackLayout;horizontal=1;startSize=26;horizontalStack=0;resizeParent=1;resizeLast=0;collapsible=1;marginBottom=0;rounded=0;shadow=0;strokeWidth=1;labelBackgroundColor=none;labelBorderColor=none;fillColor=#d5e8d4;strokeColor=#82b366;" parent="WIyWlLk6GJQsqaUBKTNV-1" vertex="1">
          <mxGeometry x="20" y="530" width="160" height="110" as="geometry">
            <mxRectangle x="230" y="140" width="160" height="26" as="alternateBounds" />
          </mxGeometry>
        </mxCell>
        <mxCell id="VnIIEGHj8XKcr8KL7Oaz-42" value="category_id: String" style="text;align=left;verticalAlign=top;spacingLeft=4;spacingRight=4;overflow=hidden;rotatable=0;points=[[0,0.5],[1,0.5]];portConstraint=eastwest;rounded=0;shadow=0;html=0;" parent="VnIIEGHj8XKcr8KL7Oaz-41" vertex="1">
          <mxGeometry y="26" width="160" height="26" as="geometry" />
        </mxCell>
        <mxCell id="VnIIEGHj8XKcr8KL7Oaz-43" value="image: String" style="text;align=left;verticalAlign=top;spacingLeft=4;spacingRight=4;overflow=hidden;rotatable=0;points=[[0,0.5],[1,0.5]];portConstraint=eastwest;rounded=0;shadow=0;html=0;" parent="VnIIEGHj8XKcr8KL7Oaz-41" vertex="1">
          <mxGeometry y="52" width="160" height="26" as="geometry" />
        </mxCell>
        <mxCell id="VnIIEGHj8XKcr8KL7Oaz-44" value="name: String" style="text;align=left;verticalAlign=top;spacingLeft=4;spacingRight=4;overflow=hidden;rotatable=0;points=[[0,0.5],[1,0.5]];portConstraint=eastwest;rounded=0;shadow=0;html=0;" parent="VnIIEGHj8XKcr8KL7Oaz-41" vertex="1">
          <mxGeometry y="78" width="160" height="26" as="geometry" />
        </mxCell>
        <mxCell id="VnIIEGHj8XKcr8KL7Oaz-45" value="Cart" style="swimlane;fontStyle=2;align=center;verticalAlign=top;childLayout=stackLayout;horizontal=1;startSize=26;horizontalStack=0;resizeParent=1;resizeLast=0;collapsible=1;marginBottom=0;rounded=0;shadow=0;strokeWidth=1;labelBackgroundColor=none;labelBorderColor=none;fillColor=#d5e8d4;strokeColor=#82b366;" parent="WIyWlLk6GJQsqaUBKTNV-1" vertex="1">
          <mxGeometry x="414" y="470" width="160" height="60" as="geometry">
            <mxRectangle x="230" y="140" width="160" height="26" as="alternateBounds" />
          </mxGeometry>
        </mxCell>
        <mxCell id="VnIIEGHj8XKcr8KL7Oaz-46" value="products: array []" style="text;align=left;verticalAlign=top;spacingLeft=4;spacingRight=4;overflow=hidden;rotatable=0;points=[[0,0.5],[1,0.5]];portConstraint=eastwest;rounded=0;shadow=0;html=0;" parent="VnIIEGHj8XKcr8KL7Oaz-45" vertex="1">
          <mxGeometry y="26" width="160" height="26" as="geometry" />
        </mxCell>
        <mxCell id="VnIIEGHj8XKcr8KL7Oaz-47" value="Banner" style="swimlane;fontStyle=2;align=center;verticalAlign=top;childLayout=stackLayout;horizontal=1;startSize=26;horizontalStack=0;resizeParent=1;resizeLast=0;collapsible=1;marginBottom=0;rounded=0;shadow=0;strokeWidth=1;labelBackgroundColor=none;labelBorderColor=none;fillColor=#d5e8d4;strokeColor=#82b366;" parent="WIyWlLk6GJQsqaUBKTNV-1" vertex="1">
          <mxGeometry x="414" y="555" width="160" height="78" as="geometry">
            <mxRectangle x="230" y="140" width="160" height="26" as="alternateBounds" />
          </mxGeometry>
        </mxCell>
        <mxCell id="VnIIEGHj8XKcr8KL7Oaz-48" value="create_at: timestamp" style="text;align=left;verticalAlign=top;spacingLeft=4;spacingRight=4;overflow=hidden;rotatable=0;points=[[0,0.5],[1,0.5]];portConstraint=eastwest;rounded=0;shadow=0;html=0;" parent="VnIIEGHj8XKcr8KL7Oaz-47" vertex="1">
          <mxGeometry y="26" width="160" height="26" as="geometry" />
        </mxCell>
        <mxCell id="VnIIEGHj8XKcr8KL7Oaz-49" value="image:String" style="text;align=left;verticalAlign=top;spacingLeft=4;spacingRight=4;overflow=hidden;rotatable=0;points=[[0,0.5],[1,0.5]];portConstraint=eastwest;rounded=0;shadow=0;html=0;" parent="VnIIEGHj8XKcr8KL7Oaz-47" vertex="1">
          <mxGeometry y="52" width="160" height="26" as="geometry" />
        </mxCell>
        <mxCell id="wSnXTbk56tFFZgQUNXcT-4" value="&lt;h1&gt;&lt;p style=&quot;border-color: var(--border-color); font-weight: 400; box-sizing: border-box; outline: 0px; padding: 0px; margin: 0px; cursor: text; counter-reset: list-1 0 list-2 0 list-3 0 list-4 0 list-5 0 list-6 0 list-7 0 list-8 0 list-9 0; font-family: Helvetica, Arial, sans-serif; font-size: 12px;&quot;&gt;&lt;font style=&quot;border-color: var(--border-color); font-size: 12px;&quot;&gt;{&lt;/font&gt;&lt;/p&gt;&lt;p style=&quot;border-color: var(--border-color); font-weight: 400; box-sizing: border-box; outline: 0px; padding: 0px; margin: 0px; cursor: text; counter-reset: list-1 0 list-2 0 list-3 0 list-4 0 list-5 0 list-6 0 list-7 0 list-8 0 list-9 0; font-family: Helvetica, Arial, sans-serif; font-size: 12px;&quot;&gt;&lt;font style=&quot;border-color: var(--border-color); font-size: 12px;&quot;&gt;Collection: Vendor&lt;/font&gt;&lt;/p&gt;&lt;p style=&quot;border-color: var(--border-color); font-weight: 400; box-sizing: border-box; outline: 0px; padding: 0px; margin: 0px; cursor: text; counter-reset: list-1 0 list-2 0 list-3 0 list-4 0 list-5 0 list-6 0 list-7 0 list-8 0 list-9 0; font-family: Helvetica, Arial, sans-serif; font-size: 12px;&quot;&gt;&lt;font style=&quot;border-color: var(--border-color); font-size: 12px;&quot;&gt;Document 1:&lt;/font&gt;&lt;/p&gt;&lt;p style=&quot;border-color: var(--border-color); font-weight: 400; box-sizing: border-box; outline: 0px; padding: 0px; margin: 0px; cursor: text; counter-reset: list-1 0 list-2 0 list-3 0 list-4 0 list-5 0 list-6 0 list-7 0 list-8 0 list-9 0; font-family: Helvetica, Arial, sans-serif; font-size: 12px;&quot;&gt;&lt;font style=&quot;border-color: var(--border-color); font-size: 12px;&quot;&gt;&amp;nbsp;&amp;nbsp;&amp;nbsp;&amp;nbsp;{&lt;/font&gt;&lt;/p&gt;&lt;p style=&quot;border-color: var(--border-color); font-weight: 400; box-sizing: border-box; outline: 0px; padding: 0px; margin: 0px; cursor: text; counter-reset: list-1 0 list-2 0 list-3 0 list-4 0 list-5 0 list-6 0 list-7 0 list-8 0 list-9 0; font-family: Helvetica, Arial, sans-serif; font-size: 12px;&quot;&gt;&lt;font style=&quot;border-color: var(--border-color); font-size: 12px;&quot;&gt;&lt;span style=&quot;border-color: var(--border-color); box-sizing: border-box; outline: 0px; background-color: rgb(0, 0, 0); padding-bottom: 5px !important;&quot;&gt;&lt;/span&gt;&lt;span style=&quot;border-color: var(--border-color);&quot;&gt;&lt;span style=&quot;border-color: var(--border-color);&quot;&gt;&amp;nbsp;&amp;nbsp;&amp;nbsp;&amp;nbsp;&lt;span style=&quot;&quot;&gt;&lt;span style=&quot;&quot;&gt;&amp;nbsp;&amp;nbsp;&amp;nbsp;&amp;nbsp;&lt;/span&gt;&lt;/span&gt;&lt;/span&gt;&lt;/span&gt;user_id: String (Reference to Users Document)&lt;/font&gt;&lt;/p&gt;&lt;p style=&quot;border-color: var(--border-color); font-weight: 400; box-sizing: border-box; outline: 0px; padding: 0px; margin: 0px; cursor: text; counter-reset: list-1 0 list-2 0 list-3 0 list-4 0 list-5 0 list-6 0 list-7 0 list-8 0 list-9 0; font-family: Helvetica, Arial, sans-serif; font-size: 12px;&quot;&gt;&lt;font style=&quot;border-color: var(--border-color); font-size: 12px;&quot;&gt;&lt;span style=&quot;border-color: var(--border-color); box-sizing: border-box; outline: 0px; padding-bottom: 5px !important;&quot;&gt;&lt;span style=&quot;border-color: var(--border-color);&quot;&gt;&lt;span style=&quot;border-color: var(--border-color);&quot;&gt;&amp;nbsp; &amp;nbsp;&amp;nbsp;&lt;span style=&quot;&quot;&gt;&lt;span style=&quot;&quot;&gt;&amp;nbsp;&amp;nbsp;&amp;nbsp;&amp;nbsp;&lt;/span&gt;&lt;/span&gt;&lt;/span&gt;&lt;/span&gt;image: String&lt;/span&gt;&lt;/font&gt;&lt;/p&gt;&lt;p style=&quot;border-color: var(--border-color); font-weight: 400; box-sizing: border-box; outline: 0px; padding: 0px; margin: 0px; cursor: text; counter-reset: list-1 0 list-2 0 list-3 0 list-4 0 list-5 0 list-6 0 list-7 0 list-8 0 list-9 0; font-family: Helvetica, Arial, sans-serif; font-size: 12px;&quot;&gt;&lt;font style=&quot;border-color: var(--border-color); font-size: 12px;&quot;&gt;&lt;span style=&quot;border-color: var(--border-color);&quot;&gt;&amp;nbsp;&amp;nbsp;&amp;nbsp;&amp;nbsp;&lt;span style=&quot;border-color: var(--border-color);&quot;&gt;&lt;span style=&quot;border-color: var(--border-color);&quot;&gt;&amp;nbsp; &amp;nbsp; vendor_email:String&lt;/span&gt;&lt;/span&gt;&lt;/span&gt;&lt;/font&gt;&lt;/p&gt;&lt;p style=&quot;border-color: var(--border-color); font-weight: 400; box-sizing: border-box; outline: 0px; padding: 0px; margin: 0px; cursor: text; counter-reset: list-1 0 list-2 0 list-3 0 list-4 0 list-5 0 list-6 0 list-7 0 list-8 0 list-9 0; font-family: Helvetica, Arial, sans-serif; font-size: 12px;&quot;&gt;&lt;font style=&quot;border-color: var(--border-color); font-size: 12px;&quot;&gt;&lt;span style=&quot;border-color: var(--border-color);&quot;&gt;&amp;nbsp;&amp;nbsp;&amp;nbsp;&amp;nbsp;&lt;span style=&quot;border-color: var(--border-color);&quot;&gt;&lt;span style=&quot;border-color: var(--border-color);&quot;&gt;&amp;nbsp; &amp;nbsp;&amp;nbsp;&lt;/span&gt;&lt;/span&gt;&lt;/span&gt;&lt;span style=&quot;border-color: var(--border-color); box-sizing: border-box; outline: 0px; padding-bottom: 5px !important;&quot;&gt;vendor_address: String&lt;/span&gt;&lt;/font&gt;&lt;/p&gt;&lt;p style=&quot;border-color: var(--border-color); font-weight: 400; box-sizing: border-box; outline: 0px; padding: 0px; margin: 0px; cursor: text; counter-reset: list-1 0 list-2 0 list-3 0 list-4 0 list-5 0 list-6 0 list-7 0 list-8 0 list-9 0; font-family: Helvetica, Arial, sans-serif; font-size: 12px;&quot;&gt;&lt;font style=&quot;border-color: var(--border-color); font-size: 12px;&quot;&gt;&lt;span style=&quot;border-color: var(--border-color);&quot;&gt;&amp;nbsp;&amp;nbsp;&amp;nbsp;&amp;nbsp;&lt;span style=&quot;border-color: var(--border-color);&quot;&gt;&lt;span style=&quot;border-color: var(--border-color);&quot;&gt;&amp;nbsp; &amp;nbsp;&amp;nbsp;&lt;/span&gt;&lt;/span&gt;&lt;/span&gt;&lt;span style=&quot;border-color: var(--border-color); box-sizing: border-box; outline: 0px; padding-bottom: 5px !important;&quot;&gt;vendor_location: String&lt;/span&gt;&lt;/font&gt;&lt;/p&gt;&lt;p style=&quot;border-color: var(--border-color); font-weight: 400; box-sizing: border-box; outline: 0px; padding: 0px; margin: 0px; cursor: text; counter-reset: list-1 0 list-2 0 list-3 0 list-4 0 list-5 0 list-6 0 list-7 0 list-8 0 list-9 0; font-family: Helvetica, Arial, sans-serif; font-size: 12px;&quot;&gt;&lt;font style=&quot;border-color: var(--border-color); font-size: 12px;&quot;&gt;&lt;span style=&quot;border-color: var(--border-color);&quot;&gt;&amp;nbsp;&amp;nbsp;&amp;nbsp;&amp;nbsp;&lt;span style=&quot;border-color: var(--border-color);&quot;&gt;&lt;span style=&quot;border-color: var(--border-color);&quot;&gt;&amp;nbsp; &amp;nbsp;&amp;nbsp;&lt;/span&gt;&lt;/span&gt;&lt;/span&gt;&lt;span style=&quot;border-color: var(--border-color); box-sizing: border-box; outline: 0px; padding-bottom: 5px !important;&quot;&gt;vendor_name: String&lt;/span&gt;&lt;/font&gt;&lt;/p&gt;&lt;p style=&quot;border-color: var(--border-color); font-weight: 400; box-sizing: border-box; outline: 0px; padding: 0px; margin: 0px; cursor: text; counter-reset: list-1 0 list-2 0 list-3 0 list-4 0 list-5 0 list-6 0 list-7 0 list-8 0 list-9 0; font-family: Helvetica, Arial, sans-serif; font-size: 12px;&quot;&gt;&lt;font style=&quot;border-color: var(--border-color); font-size: 12px;&quot;&gt;&lt;span style=&quot;border-color: var(--border-color);&quot;&gt;&amp;nbsp;&amp;nbsp;&amp;nbsp;&amp;nbsp;&lt;span style=&quot;border-color: var(--border-color);&quot;&gt;&lt;span style=&quot;border-color: var(--border-color);&quot;&gt;&amp;nbsp; &amp;nbsp;&amp;nbsp;&lt;/span&gt;&lt;/span&gt;&lt;/span&gt;&lt;span style=&quot;border-color: var(--border-color); box-sizing: border-box; outline: 0px; padding-bottom: 5px !important;&quot;&gt;vendor_origin: String (Reference to Orgin Document)&lt;/span&gt;&lt;/font&gt;&lt;/p&gt;&lt;p style=&quot;border-color: var(--border-color); font-weight: 400; box-sizing: border-box; outline: 0px; padding: 0px; margin: 0px; cursor: text; counter-reset: list-1 0 list-2 0 list-3 0 list-4 0 list-5 0 list-6 0 list-7 0 list-8 0 list-9 0; font-family: Helvetica, Arial, sans-serif; font-size: 12px;&quot;&gt;&lt;font style=&quot;border-color: var(--border-color); font-size: 12px;&quot;&gt;&lt;span style=&quot;border-color: var(--border-color);&quot;&gt;&amp;nbsp;&amp;nbsp;&amp;nbsp;&amp;nbsp;&lt;span style=&quot;border-color: var(--border-color);&quot;&gt;&lt;span style=&quot;border-color: var(--border-color);&quot;&gt;&amp;nbsp; &amp;nbsp;&amp;nbsp;&lt;/span&gt;&lt;/span&gt;&lt;/span&gt;&lt;span style=&quot;border-color: var(--border-color); box-sizing: border-box; outline: 0px; padding-bottom: 5px !important;&quot;&gt;vendor_phone: Number&lt;/span&gt;&lt;/font&gt;&lt;/p&gt;&lt;p style=&quot;border-color: var(--border-color); font-weight: 400; box-sizing: border-box; outline: 0px; padding: 0px; margin: 0px; cursor: text; counter-reset: list-1 0 list-2 0 list-3 0 list-4 0 list-5 0 list-6 0 list-7 0 list-8 0 list-9 0; font-family: Helvetica, Arial, sans-serif; font-size: 12px;&quot;&gt;&lt;font style=&quot;border-color: var(--border-color); font-size: 12px;&quot;&gt;&lt;span style=&quot;border-color: var(--border-color);&quot;&gt;&amp;nbsp;&amp;nbsp;&amp;nbsp;&amp;nbsp;&lt;/span&gt;}&lt;/font&gt;&lt;/p&gt;&lt;p style=&quot;border-color: var(--border-color); font-weight: 400; box-sizing: border-box; outline: 0px; padding: 0px; margin: 0px; cursor: text; counter-reset: list-1 0 list-2 0 list-3 0 list-4 0 list-5 0 list-6 0 list-7 0 list-8 0 list-9 0; font-family: Helvetica, Arial, sans-serif; font-size: 12px;&quot;&gt;&lt;font style=&quot;border-color: var(--border-color); font-size: 12px;&quot;&gt;Document2:&lt;/font&gt;&lt;/p&gt;&lt;p style=&quot;border-color: var(--border-color); font-weight: 400; box-sizing: border-box; outline: 0px; padding: 0px; margin: 0px; cursor: text; counter-reset: list-1 0 list-2 0 list-3 0 list-4 0 list-5 0 list-6 0 list-7 0 list-8 0 list-9 0; font-family: Helvetica, Arial, sans-serif; font-size: 12px;&quot;&gt;&lt;font style=&quot;border-color: var(--border-color); font-size: 12px;&quot;&gt;.....&lt;/font&gt;&lt;/p&gt;&lt;p style=&quot;border-color: var(--border-color); font-weight: 400; box-sizing: border-box; outline: 0px; padding: 0px; margin: 0px; cursor: text; counter-reset: list-1 0 list-2 0 list-3 0 list-4 0 list-5 0 list-6 0 list-7 0 list-8 0 list-9 0; font-family: Helvetica, Arial, sans-serif; font-size: 12px;&quot;&gt;&lt;font style=&quot;border-color: var(--border-color); font-size: 12px;&quot;&gt;}&lt;/font&gt;&lt;/p&gt;&lt;/h1&gt;" style="text;html=1;strokeColor=#d6b656;fillColor=#fff2cc;spacing=5;spacingTop=-20;whiteSpace=wrap;overflow=hidden;rounded=0;strokeWidth=1;" parent="WIyWlLk6GJQsqaUBKTNV-1" vertex="1">
          <mxGeometry x="310" y="818" width="320" height="242" as="geometry" />
        </mxCell>
        <mxCell id="wSnXTbk56tFFZgQUNXcT-5" value="&lt;h1&gt;&lt;p style=&quot;border-color: var(--border-color); font-weight: 400; box-sizing: border-box; outline: 0px; padding: 0px; margin: 0px; cursor: text; counter-reset: list-1 0 list-2 0 list-3 0 list-4 0 list-5 0 list-6 0 list-7 0 list-8 0 list-9 0; font-family: Helvetica, Arial, sans-serif; font-size: 12px;&quot;&gt;&lt;font style=&quot;border-color: var(--border-color); font-size: 12px;&quot;&gt;{&lt;/font&gt;&lt;/p&gt;&lt;p style=&quot;border-color: var(--border-color); font-weight: 400; box-sizing: border-box; outline: 0px; padding: 0px; margin: 0px; cursor: text; counter-reset: list-1 0 list-2 0 list-3 0 list-4 0 list-5 0 list-6 0 list-7 0 list-8 0 list-9 0; font-family: Helvetica, Arial, sans-serif; font-size: 12px;&quot;&gt;&lt;font style=&quot;border-color: var(--border-color); font-size: 12px;&quot;&gt;Collection: Users&lt;/font&gt;&lt;/p&gt;&lt;p style=&quot;border-color: var(--border-color); font-weight: 400; box-sizing: border-box; outline: 0px; padding: 0px; margin: 0px; cursor: text; counter-reset: list-1 0 list-2 0 list-3 0 list-4 0 list-5 0 list-6 0 list-7 0 list-8 0 list-9 0; font-family: Helvetica, Arial, sans-serif; font-size: 12px;&quot;&gt;&lt;font style=&quot;border-color: var(--border-color); font-size: 12px;&quot;&gt;Document 1&lt;/font&gt;&lt;/p&gt;&lt;p style=&quot;border-color: var(--border-color); font-weight: 400; box-sizing: border-box; outline: 0px; padding: 0px; margin: 0px; cursor: text; counter-reset: list-1 0 list-2 0 list-3 0 list-4 0 list-5 0 list-6 0 list-7 0 list-8 0 list-9 0; font-family: Helvetica, Arial, sans-serif; font-size: 12px;&quot;&gt;&lt;font style=&quot;border-color: var(--border-color); font-size: 12px;&quot;&gt;&amp;nbsp;&amp;nbsp;&amp;nbsp;&amp;nbsp;{&lt;/font&gt;&lt;/p&gt;&lt;p style=&quot;border-color: var(--border-color); font-weight: 400; box-sizing: border-box; outline: 0px; padding: 0px; margin: 0px; cursor: text; counter-reset: list-1 0 list-2 0 list-3 0 list-4 0 list-5 0 list-6 0 list-7 0 list-8 0 list-9 0; font-family: Helvetica, Arial, sans-serif; font-size: 12px;&quot;&gt;&lt;font style=&quot;border-color: var(--border-color); font-size: 12px;&quot;&gt;&lt;span style=&quot;border-color: var(--border-color); box-sizing: border-box; outline: 0px; background-color: rgb(0, 0, 0); padding-bottom: 5px !important;&quot;&gt;&lt;/span&gt;&lt;span style=&quot;border-color: var(--border-color);&quot;&gt;&lt;span style=&quot;border-color: var(--border-color);&quot;&gt;&amp;nbsp;&amp;nbsp;&amp;nbsp;&amp;nbsp;&lt;span style=&quot;white-space: pre;&quot;&gt;&#x9;&lt;/span&gt;&lt;/span&gt;&lt;/span&gt;user_id: String&lt;/font&gt;&lt;/p&gt;&lt;p style=&quot;border-color: var(--border-color); font-weight: 400; box-sizing: border-box; outline: 0px; padding: 0px; margin: 0px; cursor: text; counter-reset: list-1 0 list-2 0 list-3 0 list-4 0 list-5 0 list-6 0 list-7 0 list-8 0 list-9 0; font-family: Helvetica, Arial, sans-serif; font-size: 12px;&quot;&gt;&lt;font style=&quot;border-color: var(--border-color); font-size: 12px;&quot;&gt;&lt;span style=&quot;white-space: pre;&quot;&gt;&#x9;&lt;/span&gt;email: String&lt;br&gt;&lt;/font&gt;&lt;/p&gt;&lt;p style=&quot;border-color: var(--border-color); font-weight: 400; box-sizing: border-box; outline: 0px; padding: 0px; margin: 0px; cursor: text; counter-reset: list-1 0 list-2 0 list-3 0 list-4 0 list-5 0 list-6 0 list-7 0 list-8 0 list-9 0; font-family: Helvetica, Arial, sans-serif; font-size: 12px;&quot;&gt;&lt;font style=&quot;border-color: var(--border-color); font-size: 12px;&quot;&gt;&lt;span style=&quot;border-color: var(--border-color); box-sizing: border-box; outline: 0px; background-color: rgb(0, 0, 0); padding-bottom: 5px !important;&quot;&gt;&lt;/span&gt;&lt;span style=&quot;border-color: var(--border-color); box-sizing: border-box; outline: 0px; padding-bottom: 5px !important;&quot;&gt;&lt;span style=&quot;border-color: var(--border-color);&quot;&gt;&lt;span style=&quot;border-color: var(--border-color);&quot;&gt;&amp;nbsp;&amp;nbsp;&amp;nbsp;&amp;nbsp;&lt;span style=&quot;white-space: pre;&quot;&gt;&#x9;&lt;/span&gt;&lt;/span&gt;&lt;/span&gt;image: String&lt;/span&gt;&lt;/font&gt;&lt;/p&gt;&lt;p style=&quot;border-color: var(--border-color); font-weight: 400; box-sizing: border-box; outline: 0px; padding: 0px; margin: 0px; cursor: text; counter-reset: list-1 0 list-2 0 list-3 0 list-4 0 list-5 0 list-6 0 list-7 0 list-8 0 list-9 0; font-family: Helvetica, Arial, sans-serif; font-size: 12px;&quot;&gt;&lt;font style=&quot;border-color: var(--border-color); font-size: 12px;&quot;&gt;&lt;span style=&quot;border-color: var(--border-color);&quot;&gt;&amp;nbsp;&amp;nbsp;&amp;nbsp;&amp;nbsp;&lt;span style=&quot;border-color: var(--border-color);&quot;&gt;&lt;span style=&quot;border-color: var(--border-color);&quot;&gt;&amp;nbsp;&amp;nbsp;&amp;nbsp;&amp;nbsp;&lt;/span&gt;&lt;/span&gt;&lt;/span&gt;i&lt;span style=&quot;border-color: var(--border-color); box-sizing: border-box; outline: 0px; padding-bottom: 5px !important;&quot;&gt;sDisabled: boolean&lt;/span&gt;&lt;/font&gt;&lt;/p&gt;&lt;p style=&quot;border-color: var(--border-color); font-weight: 400; box-sizing: border-box; outline: 0px; padding: 0px; margin: 0px; cursor: text; counter-reset: list-1 0 list-2 0 list-3 0 list-4 0 list-5 0 list-6 0 list-7 0 list-8 0 list-9 0; font-family: Helvetica, Arial, sans-serif; font-size: 12px;&quot;&gt;&lt;font style=&quot;border-color: var(--border-color); font-size: 12px;&quot;&gt;&lt;span style=&quot;border-color: var(--border-color);&quot;&gt;&amp;nbsp;&amp;nbsp;&amp;nbsp;&amp;nbsp;&lt;span style=&quot;border-color: var(--border-color);&quot;&gt;&lt;span style=&quot;border-color: var(--border-color);&quot;&gt;&amp;nbsp;&amp;nbsp;&amp;nbsp;&amp;nbsp;&lt;/span&gt;&lt;/span&gt;&lt;/span&gt;&lt;span style=&quot;border-color: var(--border-color); box-sizing: border-box; outline: 0px; padding-bottom: 5px !important;&quot;&gt;role: String&lt;/span&gt;&lt;/font&gt;&lt;/p&gt;&lt;p style=&quot;border-color: var(--border-color); font-weight: 400; box-sizing: border-box; outline: 0px; padding: 0px; margin: 0px; cursor: text; counter-reset: list-1 0 list-2 0 list-3 0 list-4 0 list-5 0 list-6 0 list-7 0 list-8 0 list-9 0; font-family: Helvetica, Arial, sans-serif; font-size: 12px;&quot;&gt;&lt;font style=&quot;border-color: var(--border-color); font-size: 12px;&quot;&gt;&lt;span style=&quot;border-color: var(--border-color);&quot;&gt;&amp;nbsp;&amp;nbsp;&amp;nbsp;&amp;nbsp;&lt;span style=&quot;border-color: var(--border-color);&quot;&gt;&lt;span style=&quot;border-color: var(--border-color);&quot;&gt;&amp;nbsp;&amp;nbsp;&amp;nbsp;&amp;nbsp;&lt;/span&gt;&lt;/span&gt;&lt;/span&gt;&lt;span style=&quot;border-color: var(--border-color); box-sizing: border-box; outline: 0px; padding-bottom: 5px !important;&quot;&gt;user_address: String&lt;/span&gt;&lt;/font&gt;&lt;/p&gt;&lt;p style=&quot;border-color: var(--border-color); font-weight: 400; box-sizing: border-box; outline: 0px; padding: 0px; margin: 0px; cursor: text; counter-reset: list-1 0 list-2 0 list-3 0 list-4 0 list-5 0 list-6 0 list-7 0 list-8 0 list-9 0; font-family: Helvetica, Arial, sans-serif; font-size: 12px;&quot;&gt;&lt;font style=&quot;border-color: var(--border-color); font-size: 12px;&quot;&gt;&lt;span style=&quot;border-color: var(--border-color);&quot;&gt;&amp;nbsp;&amp;nbsp;&amp;nbsp;&amp;nbsp;&lt;span style=&quot;border-color: var(--border-color);&quot;&gt;&lt;span style=&quot;border-color: var(--border-color);&quot;&gt;&amp;nbsp;&amp;nbsp;&amp;nbsp;&amp;nbsp;&lt;/span&gt;&lt;/span&gt;&lt;/span&gt;&lt;span style=&quot;border-color: var(--border-color); box-sizing: border-box; outline: 0px; padding-bottom: 5px !important;&quot;&gt;user_date: String&lt;/span&gt;&lt;/font&gt;&lt;/p&gt;&lt;p style=&quot;border-color: var(--border-color); font-weight: 400; box-sizing: border-box; outline: 0px; padding: 0px; margin: 0px; cursor: text; counter-reset: list-1 0 list-2 0 list-3 0 list-4 0 list-5 0 list-6 0 list-7 0 list-8 0 list-9 0; font-family: Helvetica, Arial, sans-serif; font-size: 12px;&quot;&gt;&lt;font style=&quot;border-color: var(--border-color); font-size: 12px;&quot;&gt;&lt;span style=&quot;border-color: var(--border-color);&quot;&gt;&amp;nbsp;&amp;nbsp;&amp;nbsp;&amp;nbsp;&lt;span style=&quot;border-color: var(--border-color);&quot;&gt;&lt;span style=&quot;border-color: var(--border-color);&quot;&gt;&amp;nbsp;&amp;nbsp;&amp;nbsp;&amp;nbsp;&lt;/span&gt;&lt;/span&gt;&lt;/span&gt;&lt;span style=&quot;border-color: var(--border-color); box-sizing: border-box; outline: 0px; padding-bottom: 5px !important;&quot;&gt;user_location: String&lt;/span&gt;&lt;/font&gt;&lt;/p&gt;&lt;p style=&quot;border-color: var(--border-color); font-weight: 400; box-sizing: border-box; outline: 0px; padding: 0px; margin: 0px; cursor: text; counter-reset: list-1 0 list-2 0 list-3 0 list-4 0 list-5 0 list-6 0 list-7 0 list-8 0 list-9 0; font-family: Helvetica, Arial, sans-serif; font-size: 12px;&quot;&gt;&lt;font style=&quot;border-color: var(--border-color); font-size: 12px;&quot;&gt;&lt;span style=&quot;border-color: var(--border-color);&quot;&gt;&amp;nbsp;&amp;nbsp;&amp;nbsp;&amp;nbsp;&lt;span style=&quot;border-color: var(--border-color);&quot;&gt;&lt;span style=&quot;border-color: var(--border-color);&quot;&gt;&amp;nbsp;&amp;nbsp;&amp;nbsp;&amp;nbsp;&lt;/span&gt;&lt;/span&gt;&lt;/span&gt;&lt;span style=&quot;border-color: var(--border-color); box-sizing: border-box; outline: 0px; padding-bottom: 5px !important;&quot;&gt;user_name: String&lt;/span&gt;&lt;/font&gt;&lt;/p&gt;&lt;p style=&quot;border-color: var(--border-color); font-weight: 400; box-sizing: border-box; outline: 0px; padding: 0px; margin: 0px; cursor: text; counter-reset: list-1 0 list-2 0 list-3 0 list-4 0 list-5 0 list-6 0 list-7 0 list-8 0 list-9 0; font-family: Helvetica, Arial, sans-serif; font-size: 12px;&quot;&gt;&lt;font style=&quot;border-color: var(--border-color); font-size: 12px;&quot;&gt;&lt;span style=&quot;border-color: var(--border-color);&quot;&gt;&amp;nbsp;&amp;nbsp;&amp;nbsp;&amp;nbsp;&lt;span style=&quot;border-color: var(--border-color);&quot;&gt;&lt;span style=&quot;border-color: var(--border-color);&quot;&gt;&amp;nbsp;&amp;nbsp;&amp;nbsp;&amp;nbsp;&lt;/span&gt;&lt;/span&gt;&lt;/span&gt;&lt;span style=&quot;border-color: var(--border-color); box-sizing: border-box; outline: 0px; padding-bottom: 5px !important;&quot;&gt;user_origin: String (Reference to Orgin Document)&lt;/span&gt;&lt;/font&gt;&lt;/p&gt;&lt;p style=&quot;border-color: var(--border-color); font-weight: 400; box-sizing: border-box; outline: 0px; padding: 0px; margin: 0px; cursor: text; counter-reset: list-1 0 list-2 0 list-3 0 list-4 0 list-5 0 list-6 0 list-7 0 list-8 0 list-9 0; font-family: Helvetica, Arial, sans-serif; font-size: 12px;&quot;&gt;&lt;font style=&quot;border-color: var(--border-color); font-size: 12px;&quot;&gt;&lt;span style=&quot;border-color: var(--border-color);&quot;&gt;&amp;nbsp;&amp;nbsp;&amp;nbsp;&amp;nbsp;&lt;span style=&quot;border-color: var(--border-color);&quot;&gt;&lt;span style=&quot;border-color: var(--border-color);&quot;&gt;&amp;nbsp;&amp;nbsp;&amp;nbsp;&amp;nbsp;&lt;/span&gt;&lt;/span&gt;&lt;/span&gt;&lt;span style=&quot;border-color: var(--border-color); box-sizing: border-box; outline: 0px; padding-bottom: 5px !important;&quot;&gt;user_phone: Number&lt;/span&gt;&lt;/font&gt;&lt;/p&gt;&lt;p style=&quot;border-color: var(--border-color); font-weight: 400; box-sizing: border-box; outline: 0px; padding: 0px; margin: 0px; cursor: text; counter-reset: list-1 0 list-2 0 list-3 0 list-4 0 list-5 0 list-6 0 list-7 0 list-8 0 list-9 0; font-family: Helvetica, Arial, sans-serif; font-size: 12px;&quot;&gt;&lt;font style=&quot;border-color: var(--border-color); font-size: 12px;&quot;&gt;&lt;span style=&quot;border-color: var(--border-color);&quot;&gt;&amp;nbsp;&amp;nbsp;&amp;nbsp;&amp;nbsp;&lt;span style=&quot;border-color: var(--border-color);&quot;&gt;&lt;span style=&quot;border-color: var(--border-color);&quot;&gt;&amp;nbsp;&amp;nbsp;&amp;nbsp;&amp;nbsp;&lt;/span&gt;&lt;/span&gt;&lt;/span&gt;&lt;span style=&quot;border-color: var(--border-color); box-sizing: border-box; outline: 0px; padding-bottom: 5px !important;&quot;&gt;username: String&lt;/span&gt;&lt;/font&gt;&lt;/p&gt;&lt;p style=&quot;border-color: var(--border-color); font-weight: 400; box-sizing: border-box; outline: 0px; padding: 0px; margin: 0px; cursor: text; counter-reset: list-1 0 list-2 0 list-3 0 list-4 0 list-5 0 list-6 0 list-7 0 list-8 0 list-9 0; font-family: Helvetica, Arial, sans-serif; font-size: 12px;&quot;&gt;&lt;font style=&quot;border-color: var(--border-color); font-size: 12px;&quot;&gt;&lt;span style=&quot;border-color: var(--border-color);&quot;&gt;&amp;nbsp;&amp;nbsp;&amp;nbsp;&amp;nbsp;&lt;/span&gt;}&lt;/font&gt;&lt;/p&gt;&lt;p style=&quot;border-color: var(--border-color); font-weight: 400; box-sizing: border-box; outline: 0px; padding: 0px; margin: 0px; cursor: text; counter-reset: list-1 0 list-2 0 list-3 0 list-4 0 list-5 0 list-6 0 list-7 0 list-8 0 list-9 0; font-family: Helvetica, Arial, sans-serif; font-size: 12px;&quot;&gt;&lt;font style=&quot;border-color: var(--border-color); font-size: 12px;&quot;&gt;Document 2:&lt;/font&gt;&lt;/p&gt;&lt;p style=&quot;border-color: var(--border-color); font-weight: 400; box-sizing: border-box; outline: 0px; padding: 0px; margin: 0px; cursor: text; counter-reset: list-1 0 list-2 0 list-3 0 list-4 0 list-5 0 list-6 0 list-7 0 list-8 0 list-9 0; font-family: Helvetica, Arial, sans-serif; font-size: 12px;&quot;&gt;&lt;font style=&quot;border-color: var(--border-color); font-size: 12px;&quot;&gt;.....&lt;/font&gt;&lt;/p&gt;&lt;p style=&quot;border-color: var(--border-color); font-weight: 400; box-sizing: border-box; outline: 0px; padding: 0px; margin: 0px; cursor: text; counter-reset: list-1 0 list-2 0 list-3 0 list-4 0 list-5 0 list-6 0 list-7 0 list-8 0 list-9 0; font-family: Helvetica, Arial, sans-serif; font-size: 12px;&quot;&gt;&lt;font style=&quot;border-color: var(--border-color); font-size: 12px;&quot;&gt;}&lt;/font&gt;&lt;/p&gt;&lt;/h1&gt;" style="text;html=1;strokeColor=#d6b656;fillColor=#fff2cc;spacing=5;spacingTop=-20;whiteSpace=wrap;overflow=hidden;rounded=0;strokeWidth=1;" parent="WIyWlLk6GJQsqaUBKTNV-1" vertex="1">
          <mxGeometry y="818" width="310" height="302" as="geometry" />
        </mxCell>
        <mxCell id="wSnXTbk56tFFZgQUNXcT-6" value="&lt;h1&gt;&lt;p style=&quot;border-color: var(--border-color); font-weight: 400; box-sizing: border-box; outline: 0px; padding: 0px; margin: 0px; cursor: text; counter-reset: list-1 0 list-2 0 list-3 0 list-4 0 list-5 0 list-6 0 list-7 0 list-8 0 list-9 0; font-family: Helvetica, Arial, sans-serif; font-size: 12px;&quot;&gt;&lt;font style=&quot;border-color: var(--border-color); font-size: 12px;&quot;&gt;{&lt;/font&gt;&lt;/p&gt;&lt;p style=&quot;border-color: var(--border-color); font-weight: 400; box-sizing: border-box; outline: 0px; padding: 0px; margin: 0px; cursor: text; counter-reset: list-1 0 list-2 0 list-3 0 list-4 0 list-5 0 list-6 0 list-7 0 list-8 0 list-9 0; font-family: Helvetica, Arial, sans-serif; font-size: 12px;&quot;&gt;&lt;font style=&quot;border-color: var(--border-color); font-size: 12px;&quot;&gt;Collection: Product&lt;/font&gt;&lt;/p&gt;&lt;p style=&quot;border-color: var(--border-color); font-weight: 400; box-sizing: border-box; outline: 0px; padding: 0px; margin: 0px; cursor: text; counter-reset: list-1 0 list-2 0 list-3 0 list-4 0 list-5 0 list-6 0 list-7 0 list-8 0 list-9 0; font-family: Helvetica, Arial, sans-serif; font-size: 12px;&quot;&gt;&lt;font style=&quot;border-color: var(--border-color); font-size: 12px;&quot;&gt;Document 1&lt;/font&gt;&lt;/p&gt;&lt;p style=&quot;border-color: var(--border-color); font-weight: 400; box-sizing: border-box; outline: 0px; padding: 0px; margin: 0px; cursor: text; counter-reset: list-1 0 list-2 0 list-3 0 list-4 0 list-5 0 list-6 0 list-7 0 list-8 0 list-9 0; font-family: Helvetica, Arial, sans-serif; font-size: 12px;&quot;&gt;&lt;font style=&quot;border-color: var(--border-color); font-size: 12px;&quot;&gt;&amp;nbsp;&amp;nbsp;&amp;nbsp;&amp;nbsp;{&lt;/font&gt;&lt;/p&gt;&lt;p style=&quot;border-color: var(--border-color); font-weight: 400; box-sizing: border-box; outline: 0px; padding: 0px; margin: 0px; cursor: text; counter-reset: list-1 0 list-2 0 list-3 0 list-4 0 list-5 0 list-6 0 list-7 0 list-8 0 list-9 0; font-family: Helvetica, Arial, sans-serif; font-size: 12px;&quot;&gt;&lt;font style=&quot;border-color: var(--border-color); font-size: 12px;&quot;&gt;&lt;span style=&quot;border-color: var(--border-color); box-sizing: border-box; outline: 0px; background-color: rgb(0, 0, 0); padding-bottom: 5px !important;&quot;&gt;&lt;/span&gt;&lt;span style=&quot;border-color: var(--border-color);&quot;&gt;&lt;span style=&quot;border-color: var(--border-color);&quot;&gt;&amp;nbsp;&amp;nbsp;&amp;nbsp;&amp;nbsp;&lt;span style=&quot;&quot;&gt;&lt;span style=&quot;white-space: pre;&quot;&gt;&amp;nbsp;&amp;nbsp;&amp;nbsp;&amp;nbsp;&lt;/span&gt;&lt;/span&gt;&lt;/span&gt;&lt;/span&gt;product_id: String&lt;/font&gt;&lt;/p&gt;&lt;p style=&quot;border-color: var(--border-color); font-weight: 400; box-sizing: border-box; outline: 0px; padding: 0px; margin: 0px; cursor: text; counter-reset: list-1 0 list-2 0 list-3 0 list-4 0 list-5 0 list-6 0 list-7 0 list-8 0 list-9 0; font-family: Helvetica, Arial, sans-serif; font-size: 12px;&quot;&gt;&lt;font style=&quot;border-color: var(--border-color); font-size: 12px;&quot;&gt;&lt;span style=&quot;border-color: var(--border-color); box-sizing: border-box; outline: 0px; background-color: rgb(0, 0, 0); padding-bottom: 5px !important;&quot;&gt;&lt;/span&gt;&lt;span style=&quot;border-color: var(--border-color); box-sizing: border-box; outline: 0px; padding-bottom: 5px !important;&quot;&gt;&lt;span style=&quot;border-color: var(--border-color);&quot;&gt;&lt;span style=&quot;border-color: var(--border-color);&quot;&gt;&amp;nbsp;&amp;nbsp;&amp;nbsp;&amp;nbsp;&lt;span style=&quot;&quot;&gt;&lt;span style=&quot;white-space: pre;&quot;&gt;&amp;nbsp;&amp;nbsp;&amp;nbsp;&amp;nbsp;&lt;/span&gt;&lt;/span&gt;&lt;/span&gt;&lt;/span&gt;image: String&lt;/span&gt;&lt;/font&gt;&lt;/p&gt;&lt;p style=&quot;border-color: var(--border-color); font-weight: 400; box-sizing: border-box; outline: 0px; padding: 0px; margin: 0px; cursor: text; counter-reset: list-1 0 list-2 0 list-3 0 list-4 0 list-5 0 list-6 0 list-7 0 list-8 0 list-9 0; font-family: Helvetica, Arial, sans-serif; font-size: 12px;&quot;&gt;&lt;span style=&quot;&quot;&gt;&lt;span style=&quot;white-space: pre;&quot;&gt;&amp;nbsp;&amp;nbsp;&amp;nbsp;&amp;nbsp;&lt;span style=&quot;white-space: pre;&quot;&gt;&#x9;&lt;/span&gt;&lt;/span&gt;&lt;/span&gt;created at: Timestamp&lt;/p&gt;&lt;p style=&quot;border-color: var(--border-color); font-weight: 400; box-sizing: border-box; outline: 0px; padding: 0px; margin: 0px; cursor: text; counter-reset: list-1 0 list-2 0 list-3 0 list-4 0 list-5 0 list-6 0 list-7 0 list-8 0 list-9 0; font-family: Helvetica, Arial, sans-serif; font-size: 12px;&quot;&gt;&lt;span style=&quot;white-space: pre;&quot;&gt;&#x9;&lt;/span&gt;category: String (Reference to Category Document)&lt;/p&gt;&lt;p style=&quot;border-color: var(--border-color); font-weight: 400; box-sizing: border-box; outline: 0px; padding: 0px; margin: 0px; cursor: text; counter-reset: list-1 0 list-2 0 list-3 0 list-4 0 list-5 0 list-6 0 list-7 0 list-8 0 list-9 0; font-family: Helvetica, Arial, sans-serif; font-size: 12px;&quot;&gt;&lt;span style=&quot;white-space: pre;&quot;&gt;&#x9;&lt;/span&gt;name: String&lt;br&gt;&lt;/p&gt;&lt;p style=&quot;border-color: var(--border-color); font-weight: 400; box-sizing: border-box; outline: 0px; padding: 0px; margin: 0px; cursor: text; counter-reset: list-1 0 list-2 0 list-3 0 list-4 0 list-5 0 list-6 0 list-7 0 list-8 0 list-9 0; font-family: Helvetica, Arial, sans-serif; font-size: 12px;&quot;&gt;&lt;span style=&quot;white-space: pre;&quot;&gt;&#x9;&lt;/span&gt;kilo: Number&lt;br&gt;&lt;/p&gt;&lt;p style=&quot;border-color: var(--border-color); font-weight: 400; box-sizing: border-box; outline: 0px; padding: 0px; margin: 0px; cursor: text; counter-reset: list-1 0 list-2 0 list-3 0 list-4 0 list-5 0 list-6 0 list-7 0 list-8 0 list-9 0; font-family: Helvetica, Arial, sans-serif; font-size: 12px;&quot;&gt;&lt;span style=&quot;white-space: pre;&quot;&gt;&#x9;&lt;/span&gt;price: Number&lt;br&gt;&lt;/p&gt;&lt;p style=&quot;border-color: var(--border-color); font-weight: 400; box-sizing: border-box; outline: 0px; padding: 0px; margin: 0px; cursor: text; counter-reset: list-1 0 list-2 0 list-3 0 list-4 0 list-5 0 list-6 0 list-7 0 list-8 0 list-9 0; font-family: Helvetica, Arial, sans-serif; font-size: 12px;&quot;&gt;&lt;font style=&quot;border-color: var(--border-color); font-size: 12px;&quot;&gt;&lt;span style=&quot;border-color: var(--border-color);&quot;&gt;&amp;nbsp;&amp;nbsp;&amp;nbsp;&amp;nbsp;&lt;span style=&quot;border-color: var(--border-color);&quot;&gt;&lt;span style=&quot;border-color: var(--border-color);&quot;&gt;&amp;nbsp;&amp;nbsp;&amp;nbsp;&amp;nbsp;&lt;/span&gt;&lt;/span&gt;&lt;/span&gt;&lt;span style=&quot;border-color: var(--border-color); box-sizing: border-box; outline: 0px; padding-bottom: 5px !important;&quot;&gt;note: String&lt;/span&gt;&lt;/font&gt;&lt;/p&gt;&lt;p style=&quot;border-color: var(--border-color); font-weight: 400; box-sizing: border-box; outline: 0px; padding: 0px; margin: 0px; cursor: text; counter-reset: list-1 0 list-2 0 list-3 0 list-4 0 list-5 0 list-6 0 list-7 0 list-8 0 list-9 0; font-family: Helvetica, Arial, sans-serif; font-size: 12px;&quot;&gt;&lt;font style=&quot;border-color: var(--border-color); font-size: 12px;&quot;&gt;&lt;span style=&quot;border-color: var(--border-color);&quot;&gt;&amp;nbsp;&amp;nbsp;&amp;nbsp;&amp;nbsp;&lt;span style=&quot;border-color: var(--border-color);&quot;&gt;&lt;span style=&quot;border-color: var(--border-color);&quot;&gt;&amp;nbsp;&amp;nbsp;&amp;nbsp;&amp;nbsp;&lt;/span&gt;&lt;/span&gt;&lt;/span&gt;&lt;span style=&quot;border-color: var(--border-color); box-sizing: border-box; outline: 0px; padding-bottom: 5px !important;&quot;&gt;quantity: Number&lt;/span&gt;&lt;/font&gt;&lt;/p&gt;&lt;p style=&quot;border-color: var(--border-color); font-weight: 400; box-sizing: border-box; outline: 0px; padding: 0px; margin: 0px; cursor: text; counter-reset: list-1 0 list-2 0 list-3 0 list-4 0 list-5 0 list-6 0 list-7 0 list-8 0 list-9 0; font-family: Helvetica, Arial, sans-serif; font-size: 12px;&quot;&gt;&lt;font style=&quot;border-color: var(--border-color); font-size: 12px;&quot;&gt;&lt;span style=&quot;border-color: var(--border-color);&quot;&gt;&amp;nbsp;&amp;nbsp;&amp;nbsp;&amp;nbsp;&lt;span style=&quot;border-color: var(--border-color);&quot;&gt;&lt;span style=&quot;border-color: var(--border-color);&quot;&gt;&amp;nbsp;&amp;nbsp;&amp;nbsp;&amp;nbsp;&lt;/span&gt;&lt;/span&gt;&lt;/span&gt;&lt;span style=&quot;border-color: var(--border-color); box-sizing: border-box; outline: 0px; padding-bottom: 5px !important;&quot;&gt;quantity_buy: Number&lt;/span&gt;&lt;/font&gt;&lt;/p&gt;&lt;p style=&quot;border-color: var(--border-color); font-weight: 400; box-sizing: border-box; outline: 0px; padding: 0px; margin: 0px; cursor: text; counter-reset: list-1 0 list-2 0 list-3 0 list-4 0 list-5 0 list-6 0 list-7 0 list-8 0 list-9 0; font-family: Helvetica, Arial, sans-serif; font-size: 12px;&quot;&gt;&lt;font style=&quot;border-color: var(--border-color); font-size: 12px;&quot;&gt;&lt;span style=&quot;border-color: var(--border-color);&quot;&gt;&amp;nbsp;&amp;nbsp;&amp;nbsp;&amp;nbsp;&lt;span style=&quot;border-color: var(--border-color);&quot;&gt;&lt;span style=&quot;border-color: var(--border-color);&quot;&gt;&amp;nbsp;&amp;nbsp;&amp;nbsp;&amp;nbsp;&lt;/span&gt;&lt;/span&gt;&lt;/span&gt;&lt;span style=&quot;border-color: var(--border-color); box-sizing: border-box; outline: 0px; padding-bottom: 5px !important;&quot;&gt;update_at: Timestamp&lt;/span&gt;&lt;/font&gt;&lt;/p&gt;&lt;p style=&quot;border-color: var(--border-color); font-weight: 400; box-sizing: border-box; outline: 0px; padding: 0px; margin: 0px; cursor: text; counter-reset: list-1 0 list-2 0 list-3 0 list-4 0 list-5 0 list-6 0 list-7 0 list-8 0 list-9 0; font-family: Helvetica, Arial, sans-serif; font-size: 12px;&quot;&gt;&lt;font style=&quot;border-color: var(--border-color); font-size: 12px;&quot;&gt;&lt;span style=&quot;border-color: var(--border-color);&quot;&gt;&amp;nbsp;&amp;nbsp;&amp;nbsp;&amp;nbsp;&lt;span style=&quot;border-color: var(--border-color);&quot;&gt;&lt;span style=&quot;border-color: var(--border-color);&quot;&gt;&amp;nbsp; &amp;nbsp; sort_timestamp: Timestamp&lt;/span&gt;&lt;/span&gt;&lt;/span&gt;&lt;/font&gt;&lt;/p&gt;&lt;p style=&quot;border-color: var(--border-color); font-weight: 400; box-sizing: border-box; outline: 0px; padding: 0px; margin: 0px; cursor: text; counter-reset: list-1 0 list-2 0 list-3 0 list-4 0 list-5 0 list-6 0 list-7 0 list-8 0 list-9 0; font-family: Helvetica, Arial, sans-serif; font-size: 12px;&quot;&gt;&lt;font style=&quot;border-color: var(--border-color); font-size: 12px;&quot;&gt;&lt;span style=&quot;border-color: var(--border-color);&quot;&gt;&amp;nbsp;&amp;nbsp;&amp;nbsp;&amp;nbsp;&lt;span style=&quot;border-color: var(--border-color);&quot;&gt;&lt;span style=&quot;border-color: var(--border-color);&quot;&gt;&amp;nbsp;&amp;nbsp;&amp;nbsp;&amp;nbsp;&lt;/span&gt;&lt;/span&gt;&lt;/span&gt;&lt;span style=&quot;border-color: var(--border-color); box-sizing: border-box; outline: 0px; padding-bottom: 5px !important;&quot;&gt;user_id: String (Reference to Users Document)&lt;/span&gt;&lt;/font&gt;&lt;/p&gt;&lt;p style=&quot;border-color: var(--border-color); font-weight: 400; box-sizing: border-box; outline: 0px; padding: 0px; margin: 0px; cursor: text; counter-reset: list-1 0 list-2 0 list-3 0 list-4 0 list-5 0 list-6 0 list-7 0 list-8 0 list-9 0; font-family: Helvetica, Arial, sans-serif; font-size: 12px;&quot;&gt;&lt;font style=&quot;border-color: var(--border-color); font-size: 12px;&quot;&gt;&lt;span style=&quot;border-color: var(--border-color);&quot;&gt;&amp;nbsp;&amp;nbsp;&amp;nbsp;&amp;nbsp;&lt;span style=&quot;border-color: var(--border-color);&quot;&gt;&lt;span style=&quot;border-color: var(--border-color);&quot;&gt;&amp;nbsp; &amp;nbsp; vendor_id: String (Reference to Vendorr Document)&lt;/span&gt;&lt;/span&gt;&lt;/span&gt;&lt;/font&gt;&lt;/p&gt;&lt;p style=&quot;border-color: var(--border-color); font-weight: 400; box-sizing: border-box; outline: 0px; padding: 0px; margin: 0px; cursor: text; counter-reset: list-1 0 list-2 0 list-3 0 list-4 0 list-5 0 list-6 0 list-7 0 list-8 0 list-9 0; font-family: Helvetica, Arial, sans-serif; font-size: 12px;&quot;&gt;&lt;font style=&quot;border-color: var(--border-color); font-size: 12px;&quot;&gt;&lt;span style=&quot;border-color: var(--border-color);&quot;&gt;&amp;nbsp;&amp;nbsp;&amp;nbsp;&amp;nbsp;&lt;/span&gt;}&lt;/font&gt;&lt;/p&gt;&lt;p style=&quot;border-color: var(--border-color); font-weight: 400; box-sizing: border-box; outline: 0px; padding: 0px; margin: 0px; cursor: text; counter-reset: list-1 0 list-2 0 list-3 0 list-4 0 list-5 0 list-6 0 list-7 0 list-8 0 list-9 0; font-family: Helvetica, Arial, sans-serif; font-size: 12px;&quot;&gt;&lt;font style=&quot;border-color: var(--border-color); font-size: 12px;&quot;&gt;Document 2:&lt;/font&gt;&lt;/p&gt;&lt;p style=&quot;border-color: var(--border-color); font-weight: 400; box-sizing: border-box; outline: 0px; padding: 0px; margin: 0px; cursor: text; counter-reset: list-1 0 list-2 0 list-3 0 list-4 0 list-5 0 list-6 0 list-7 0 list-8 0 list-9 0; font-family: Helvetica, Arial, sans-serif; font-size: 12px;&quot;&gt;&lt;font style=&quot;border-color: var(--border-color); font-size: 12px;&quot;&gt;.....&lt;/font&gt;&lt;/p&gt;&lt;p style=&quot;border-color: var(--border-color); font-weight: 400; box-sizing: border-box; outline: 0px; padding: 0px; margin: 0px; cursor: text; counter-reset: list-1 0 list-2 0 list-3 0 list-4 0 list-5 0 list-6 0 list-7 0 list-8 0 list-9 0; font-family: Helvetica, Arial, sans-serif; font-size: 12px;&quot;&gt;&lt;font style=&quot;border-color: var(--border-color); font-size: 12px;&quot;&gt;}&lt;/font&gt;&lt;/p&gt;&lt;/h1&gt;" style="text;html=1;strokeColor=#d6b656;fillColor=#fff2cc;spacing=5;spacingTop=-20;whiteSpace=wrap;overflow=hidden;rounded=0;strokeWidth=1;" parent="WIyWlLk6GJQsqaUBKTNV-1" vertex="1">
          <mxGeometry x="630" y="818" width="310" height="322" as="geometry" />
        </mxCell>
        <mxCell id="wSnXTbk56tFFZgQUNXcT-7" value="&lt;h1&gt;&lt;p style=&quot;border-color: var(--border-color); font-weight: 400; box-sizing: border-box; outline: 0px; padding: 0px; margin: 0px; cursor: text; counter-reset: list-1 0 list-2 0 list-3 0 list-4 0 list-5 0 list-6 0 list-7 0 list-8 0 list-9 0; font-family: Helvetica, Arial, sans-serif; font-size: 12px;&quot;&gt;&lt;font style=&quot;border-color: var(--border-color); font-size: 12px;&quot;&gt;{&lt;/font&gt;&lt;/p&gt;&lt;p style=&quot;border-color: var(--border-color); font-weight: 400; box-sizing: border-box; outline: 0px; padding: 0px; margin: 0px; cursor: text; counter-reset: list-1 0 list-2 0 list-3 0 list-4 0 list-5 0 list-6 0 list-7 0 list-8 0 list-9 0; font-family: Helvetica, Arial, sans-serif; font-size: 12px;&quot;&gt;&lt;font style=&quot;border-color: var(--border-color); font-size: 12px;&quot;&gt;Collection: Order&lt;/font&gt;&lt;/p&gt;&lt;p style=&quot;border-color: var(--border-color); font-weight: 400; box-sizing: border-box; outline: 0px; padding: 0px; margin: 0px; cursor: text; counter-reset: list-1 0 list-2 0 list-3 0 list-4 0 list-5 0 list-6 0 list-7 0 list-8 0 list-9 0; font-family: Helvetica, Arial, sans-serif; font-size: 12px;&quot;&gt;&lt;font style=&quot;border-color: var(--border-color); font-size: 12px;&quot;&gt;Document 1:&lt;/font&gt;&lt;/p&gt;&lt;p style=&quot;border-color: var(--border-color); font-weight: 400; box-sizing: border-box; outline: 0px; padding: 0px; margin: 0px; cursor: text; counter-reset: list-1 0 list-2 0 list-3 0 list-4 0 list-5 0 list-6 0 list-7 0 list-8 0 list-9 0; font-family: Helvetica, Arial, sans-serif; font-size: 12px;&quot;&gt;&lt;font style=&quot;border-color: var(--border-color); font-size: 12px;&quot;&gt;&amp;nbsp;&amp;nbsp;&amp;nbsp;&amp;nbsp;{&lt;/font&gt;&lt;/p&gt;&lt;p style=&quot;border-color: var(--border-color); font-weight: 400; box-sizing: border-box; outline: 0px; padding: 0px; margin: 0px; cursor: text; counter-reset: list-1 0 list-2 0 list-3 0 list-4 0 list-5 0 list-6 0 list-7 0 list-8 0 list-9 0; font-family: Helvetica, Arial, sans-serif; font-size: 12px;&quot;&gt;&lt;font style=&quot;border-color: var(--border-color); font-size: 12px;&quot;&gt;&lt;span style=&quot;border-color: var(--border-color); box-sizing: border-box; outline: 0px; background-color: rgb(0, 0, 0); padding-bottom: 5px !important;&quot;&gt;&lt;/span&gt;&lt;span style=&quot;border-color: var(--border-color);&quot;&gt;&lt;span style=&quot;border-color: var(--border-color);&quot;&gt;&amp;nbsp;&amp;nbsp;&amp;nbsp;&amp;nbsp;&lt;span style=&quot;&quot;&gt;&lt;span style=&quot;&quot;&gt;&amp;nbsp;&amp;nbsp;&amp;nbsp;&amp;nbsp;&lt;/span&gt;&lt;/span&gt;&lt;/span&gt;&lt;/span&gt;user_id: String (Reference to Users Document)&lt;/font&gt;&lt;/p&gt;&lt;p style=&quot;border-color: var(--border-color); font-weight: 400; box-sizing: border-box; outline: 0px; padding: 0px; margin: 0px; cursor: text; counter-reset: list-1 0 list-2 0 list-3 0 list-4 0 list-5 0 list-6 0 list-7 0 list-8 0 list-9 0; font-family: Helvetica, Arial, sans-serif; font-size: 12px;&quot;&gt;&lt;span style=&quot;white-space: pre;&quot;&gt;&#x9;&lt;/span&gt;vendor_id: String (Reference to Vendor Document&lt;span style=&quot;background-color: initial;&quot;&gt;)&lt;/span&gt;&lt;/p&gt;&lt;p style=&quot;border-color: var(--border-color); font-weight: 400; box-sizing: border-box; outline: 0px; padding: 0px; margin: 0px; cursor: text; counter-reset: list-1 0 list-2 0 list-3 0 list-4 0 list-5 0 list-6 0 list-7 0 list-8 0 list-9 0; font-family: Helvetica, Arial, sans-serif; font-size: 12px;&quot;&gt;&lt;span style=&quot;white-space: pre;&quot;&gt;&#x9;&lt;/span&gt;orderItems: array[]&lt;/p&gt;&lt;p style=&quot;border-color: var(--border-color); font-weight: 400; box-sizing: border-box; outline: 0px; padding: 0px; margin: 0px; cursor: text; counter-reset: list-1 0 list-2 0 list-3 0 list-4 0 list-5 0 list-6 0 list-7 0 list-8 0 list-9 0; font-family: Helvetica, Arial, sans-serif; font-size: 12px;&quot;&gt;&lt;font style=&quot;border-color: var(--border-color); font-size: 12px;&quot;&gt;&lt;span style=&quot;border-color: var(--border-color);&quot;&gt;&amp;nbsp;&amp;nbsp;&amp;nbsp;&amp;nbsp;&lt;span style=&quot;border-color: var(--border-color);&quot;&gt;&lt;span style=&quot;border-color: var(--border-color);&quot;&gt;&amp;nbsp; &amp;nbsp; order&lt;/span&gt;&lt;/span&gt;&lt;/span&gt;&lt;span style=&quot;border-color: var(--border-color); box-sizing: border-box; outline: 0px; padding-bottom: 5px !important;&quot;&gt;_address: String&lt;/span&gt;&lt;/font&gt;&lt;/p&gt;&lt;p style=&quot;border-color: var(--border-color); font-weight: 400; box-sizing: border-box; outline: 0px; padding: 0px; margin: 0px; cursor: text; counter-reset: list-1 0 list-2 0 list-3 0 list-4 0 list-5 0 list-6 0 list-7 0 list-8 0 list-9 0; font-family: Helvetica, Arial, sans-serif; font-size: 12px;&quot;&gt;&lt;font style=&quot;border-color: var(--border-color); font-size: 12px;&quot;&gt;&lt;span style=&quot;border-color: var(--border-color);&quot;&gt;&amp;nbsp;&amp;nbsp;&amp;nbsp;&amp;nbsp;&lt;span style=&quot;border-color: var(--border-color);&quot;&gt;&lt;span style=&quot;border-color: var(--border-color);&quot;&gt;&amp;nbsp; &amp;nbsp; order&lt;/span&gt;&lt;/span&gt;&lt;/span&gt;&lt;span style=&quot;border-color: var(--border-color); box-sizing: border-box; outline: 0px; padding-bottom: 5px !important;&quot;&gt;_name: String&lt;/span&gt;&lt;/font&gt;&lt;/p&gt;&lt;p style=&quot;border-color: var(--border-color); font-weight: 400; box-sizing: border-box; outline: 0px; padding: 0px; margin: 0px; cursor: text; counter-reset: list-1 0 list-2 0 list-3 0 list-4 0 list-5 0 list-6 0 list-7 0 list-8 0 list-9 0; font-family: Helvetica, Arial, sans-serif; font-size: 12px;&quot;&gt;&lt;font style=&quot;border-color: var(--border-color); font-size: 12px;&quot;&gt;&lt;span style=&quot;border-color: var(--border-color);&quot;&gt;&amp;nbsp;&amp;nbsp;&amp;nbsp;&amp;nbsp;&lt;span style=&quot;border-color: var(--border-color);&quot;&gt;&lt;span style=&quot;border-color: var(--border-color);&quot;&gt;&amp;nbsp; &amp;nbsp; order&lt;/span&gt;&lt;/span&gt;&lt;/span&gt;&lt;span style=&quot;border-color: var(--border-color); box-sizing: border-box; outline: 0px; padding-bottom: 5px !important;&quot;&gt;_origin: String (Reference to Orgin Document)&lt;/span&gt;&lt;/font&gt;&lt;/p&gt;&lt;p style=&quot;border-color: var(--border-color); font-weight: 400; box-sizing: border-box; outline: 0px; padding: 0px; margin: 0px; cursor: text; counter-reset: list-1 0 list-2 0 list-3 0 list-4 0 list-5 0 list-6 0 list-7 0 list-8 0 list-9 0; font-family: Helvetica, Arial, sans-serif; font-size: 12px;&quot;&gt;&lt;font style=&quot;border-color: var(--border-color); font-size: 12px;&quot;&gt;&lt;span style=&quot;border-color: var(--border-color);&quot;&gt;&amp;nbsp;&amp;nbsp;&amp;nbsp;&amp;nbsp;&lt;span style=&quot;border-color: var(--border-color);&quot;&gt;&lt;span style=&quot;border-color: var(--border-color);&quot;&gt;&amp;nbsp; &amp;nbsp; order&lt;/span&gt;&lt;/span&gt;&lt;/span&gt;&lt;span style=&quot;border-color: var(--border-color); box-sizing: border-box; outline: 0px; padding-bottom: 5px !important;&quot;&gt;_phone: Number&lt;/span&gt;&lt;/font&gt;&lt;/p&gt;&lt;p style=&quot;border-color: var(--border-color); font-weight: 400; box-sizing: border-box; outline: 0px; padding: 0px; margin: 0px; cursor: text; counter-reset: list-1 0 list-2 0 list-3 0 list-4 0 list-5 0 list-6 0 list-7 0 list-8 0 list-9 0; font-family: Helvetica, Arial, sans-serif; font-size: 12px;&quot;&gt;&lt;font style=&quot;border-color: var(--border-color); font-size: 12px;&quot;&gt;&lt;span style=&quot;border-color: var(--border-color); box-sizing: border-box; outline: 0px; padding-bottom: 5px !important;&quot;&gt;&lt;span style=&quot;white-space: pre;&quot;&gt;&#x9;&lt;/span&gt;order_at: Timestamp&lt;br&gt;&lt;/span&gt;&lt;/font&gt;&lt;/p&gt;&lt;p style=&quot;border-color: var(--border-color); font-weight: 400; box-sizing: border-box; outline: 0px; padding: 0px; margin: 0px; cursor: text; counter-reset: list-1 0 list-2 0 list-3 0 list-4 0 list-5 0 list-6 0 list-7 0 list-8 0 list-9 0; font-family: Helvetica, Arial, sans-serif; font-size: 12px;&quot;&gt;&lt;font style=&quot;border-color: var(--border-color); font-size: 12px;&quot;&gt;&lt;span style=&quot;border-color: var(--border-color); box-sizing: border-box; outline: 0px; padding-bottom: 5px !important;&quot;&gt;&lt;span style=&quot;white-space: pre;&quot;&gt;&#x9;&lt;/span&gt;payment_method: String&lt;br&gt;&lt;/span&gt;&lt;/font&gt;&lt;/p&gt;&lt;p style=&quot;border-color: var(--border-color); font-weight: 400; box-sizing: border-box; outline: 0px; padding: 0px; margin: 0px; cursor: text; counter-reset: list-1 0 list-2 0 list-3 0 list-4 0 list-5 0 list-6 0 list-7 0 list-8 0 list-9 0; font-family: Helvetica, Arial, sans-serif; font-size: 12px;&quot;&gt;&lt;font style=&quot;border-color: var(--border-color); font-size: 12px;&quot;&gt;&lt;span style=&quot;border-color: var(--border-color); box-sizing: border-box; outline: 0px; padding-bottom: 5px !important;&quot;&gt;&lt;span style=&quot;white-space: pre;&quot;&gt;&#x9;&lt;/span&gt;status: String (Reference to Status Document)&lt;br&gt;&lt;/span&gt;&lt;/font&gt;&lt;/p&gt;&lt;p style=&quot;border-color: var(--border-color); font-weight: 400; box-sizing: border-box; outline: 0px; padding: 0px; margin: 0px; cursor: text; counter-reset: list-1 0 list-2 0 list-3 0 list-4 0 list-5 0 list-6 0 list-7 0 list-8 0 list-9 0; font-family: Helvetica, Arial, sans-serif; font-size: 12px;&quot;&gt;&lt;font style=&quot;border-color: var(--border-color); font-size: 12px;&quot;&gt;&lt;span style=&quot;border-color: var(--border-color);&quot;&gt;&amp;nbsp;&amp;nbsp;&amp;nbsp;&amp;nbsp;&lt;/span&gt;}&lt;/font&gt;&lt;/p&gt;&lt;p style=&quot;border-color: var(--border-color); font-weight: 400; box-sizing: border-box; outline: 0px; padding: 0px; margin: 0px; cursor: text; counter-reset: list-1 0 list-2 0 list-3 0 list-4 0 list-5 0 list-6 0 list-7 0 list-8 0 list-9 0; font-family: Helvetica, Arial, sans-serif; font-size: 12px;&quot;&gt;&lt;font style=&quot;border-color: var(--border-color); font-size: 12px;&quot;&gt;Document2:&lt;/font&gt;&lt;/p&gt;&lt;p style=&quot;border-color: var(--border-color); font-weight: 400; box-sizing: border-box; outline: 0px; padding: 0px; margin: 0px; cursor: text; counter-reset: list-1 0 list-2 0 list-3 0 list-4 0 list-5 0 list-6 0 list-7 0 list-8 0 list-9 0; font-family: Helvetica, Arial, sans-serif; font-size: 12px;&quot;&gt;&lt;font style=&quot;border-color: var(--border-color); font-size: 12px;&quot;&gt;.....&lt;/font&gt;&lt;/p&gt;&lt;p style=&quot;border-color: var(--border-color); font-weight: 400; box-sizing: border-box; outline: 0px; padding: 0px; margin: 0px; cursor: text; counter-reset: list-1 0 list-2 0 list-3 0 list-4 0 list-5 0 list-6 0 list-7 0 list-8 0 list-9 0; font-family: Helvetica, Arial, sans-serif; font-size: 12px;&quot;&gt;&lt;font style=&quot;border-color: var(--border-color); font-size: 12px;&quot;&gt;}&lt;/font&gt;&lt;/p&gt;&lt;/h1&gt;" style="text;html=1;strokeColor=#d6b656;fillColor=#fff2cc;spacing=5;spacingTop=-20;whiteSpace=wrap;overflow=hidden;rounded=0;strokeWidth=1;" parent="WIyWlLk6GJQsqaUBKTNV-1" vertex="1">
          <mxGeometry x="310" y="1060" width="320" height="270" as="geometry" />
        </mxCell>
        <mxCell id="wSnXTbk56tFFZgQUNXcT-8" value="&lt;h1&gt;&lt;p style=&quot;border-color: var(--border-color); font-weight: 400; box-sizing: border-box; outline: 0px; padding: 0px; margin: 0px; cursor: text; counter-reset: list-1 0 list-2 0 list-3 0 list-4 0 list-5 0 list-6 0 list-7 0 list-8 0 list-9 0; font-family: Helvetica, Arial, sans-serif; font-size: 12px;&quot;&gt;&lt;font style=&quot;border-color: var(--border-color); font-size: 12px;&quot;&gt;{&lt;/font&gt;&lt;/p&gt;&lt;p style=&quot;border-color: var(--border-color); font-weight: 400; box-sizing: border-box; outline: 0px; padding: 0px; margin: 0px; cursor: text; counter-reset: list-1 0 list-2 0 list-3 0 list-4 0 list-5 0 list-6 0 list-7 0 list-8 0 list-9 0; font-family: Helvetica, Arial, sans-serif; font-size: 12px;&quot;&gt;&lt;font style=&quot;border-color: var(--border-color); font-size: 12px;&quot;&gt;Collection: Orgin&lt;/font&gt;&lt;/p&gt;&lt;p style=&quot;border-color: var(--border-color); font-weight: 400; box-sizing: border-box; outline: 0px; padding: 0px; margin: 0px; cursor: text; counter-reset: list-1 0 list-2 0 list-3 0 list-4 0 list-5 0 list-6 0 list-7 0 list-8 0 list-9 0; font-family: Helvetica, Arial, sans-serif; font-size: 12px;&quot;&gt;&lt;font style=&quot;border-color: var(--border-color); font-size: 12px;&quot;&gt;Document 1:&lt;/font&gt;&lt;/p&gt;&lt;p style=&quot;border-color: var(--border-color); font-weight: 400; box-sizing: border-box; outline: 0px; padding: 0px; margin: 0px; cursor: text; counter-reset: list-1 0 list-2 0 list-3 0 list-4 0 list-5 0 list-6 0 list-7 0 list-8 0 list-9 0; font-family: Helvetica, Arial, sans-serif; font-size: 12px;&quot;&gt;&lt;font style=&quot;border-color: var(--border-color); font-size: 12px;&quot;&gt;&amp;nbsp;&amp;nbsp;&amp;nbsp;&amp;nbsp;&lt;span style=&quot;white-space: pre;&quot;&gt;&#x9;&lt;/span&gt;{&lt;/font&gt;&lt;/p&gt;&lt;p style=&quot;border-color: var(--border-color); font-weight: 400; box-sizing: border-box; outline: 0px; padding: 0px; margin: 0px; cursor: text; counter-reset: list-1 0 list-2 0 list-3 0 list-4 0 list-5 0 list-6 0 list-7 0 list-8 0 list-9 0; font-family: Helvetica, Arial, sans-serif; font-size: 12px;&quot;&gt;&lt;font style=&quot;border-color: var(--border-color); font-size: 12px;&quot;&gt;&lt;span style=&quot;border-color: var(--border-color); box-sizing: border-box; outline: 0px; background-color: rgb(0, 0, 0); padding-bottom: 5px !important;&quot;&gt;&lt;/span&gt;&lt;span style=&quot;border-color: var(--border-color);&quot;&gt;&lt;span style=&quot;border-color: var(--border-color);&quot;&gt;&amp;nbsp;&amp;nbsp;&amp;nbsp;&amp;nbsp;&lt;span style=&quot;&quot;&gt;&lt;span style=&quot;&quot;&gt;&amp;nbsp; &amp;nbsp; origin&lt;/span&gt;&lt;/span&gt;&lt;/span&gt;&lt;/span&gt;_id: String&lt;/font&gt;&lt;/p&gt;&lt;p style=&quot;border-color: var(--border-color); font-weight: 400; box-sizing: border-box; outline: 0px; padding: 0px; margin: 0px; cursor: text; counter-reset: list-1 0 list-2 0 list-3 0 list-4 0 list-5 0 list-6 0 list-7 0 list-8 0 list-9 0; font-family: Helvetica, Arial, sans-serif; font-size: 12px;&quot;&gt;&lt;font style=&quot;border-color: var(--border-color); font-size: 12px;&quot;&gt;&lt;span style=&quot;border-color: var(--border-color);&quot;&gt;&amp;nbsp;&amp;nbsp;&amp;nbsp;&amp;nbsp;&lt;span style=&quot;border-color: var(--border-color);&quot;&gt;&lt;span style=&quot;border-color: var(--border-color);&quot;&gt;&amp;nbsp; &amp;nbsp;&amp;nbsp;&lt;/span&gt;&lt;/span&gt;&lt;/span&gt;&lt;span style=&quot;border-color: var(--border-color); box-sizing: border-box; outline: 0px; padding-bottom: 5px !important;&quot;&gt;name: String&lt;/span&gt;&lt;/font&gt;&lt;/p&gt;&lt;p style=&quot;border-color: var(--border-color); font-weight: 400; box-sizing: border-box; outline: 0px; padding: 0px; margin: 0px; cursor: text; counter-reset: list-1 0 list-2 0 list-3 0 list-4 0 list-5 0 list-6 0 list-7 0 list-8 0 list-9 0; font-family: Helvetica, Arial, sans-serif; font-size: 12px;&quot;&gt;&lt;font style=&quot;border-color: var(--border-color); font-size: 12px;&quot;&gt;&lt;span style=&quot;border-color: var(--border-color);&quot;&gt;&amp;nbsp;&amp;nbsp;&amp;nbsp;&amp;nbsp;&lt;span style=&quot;border-color: var(--border-color);&quot;&gt;&lt;span style=&quot;border-color: var(--border-color);&quot;&gt;&amp;nbsp; &amp;nbsp;&amp;nbsp;&lt;/span&gt;&lt;/span&gt;&lt;/span&gt;&lt;span style=&quot;border-color: var(--border-color); box-sizing: border-box; outline: 0px; padding-bottom: 5px !important;&quot;&gt;created_at: timestamp&lt;/span&gt;&lt;/font&gt;&lt;span style=&quot;background-color: initial; border-color: var(--border-color);&quot;&gt;&amp;nbsp; &amp;nbsp;&amp;nbsp;&lt;/span&gt;&lt;/p&gt;&lt;p style=&quot;border-color: var(--border-color); font-weight: 400; box-sizing: border-box; outline: 0px; padding: 0px; margin: 0px; cursor: text; counter-reset: list-1 0 list-2 0 list-3 0 list-4 0 list-5 0 list-6 0 list-7 0 list-8 0 list-9 0; font-family: Helvetica, Arial, sans-serif; font-size: 12px;&quot;&gt;&lt;span style=&quot;background-color: initial;&quot;&gt;&lt;span style=&quot;white-space: pre;&quot;&gt;&#x9;&lt;/span&gt;}&lt;/span&gt;&lt;/p&gt;&lt;p style=&quot;border-color: var(--border-color); font-weight: 400; box-sizing: border-box; outline: 0px; padding: 0px; margin: 0px; cursor: text; counter-reset: list-1 0 list-2 0 list-3 0 list-4 0 list-5 0 list-6 0 list-7 0 list-8 0 list-9 0; font-family: Helvetica, Arial, sans-serif; font-size: 12px;&quot;&gt;&lt;font style=&quot;border-color: var(--border-color); font-size: 12px;&quot;&gt;Document2:&lt;/font&gt;&lt;/p&gt;&lt;p style=&quot;border-color: var(--border-color); font-weight: 400; box-sizing: border-box; outline: 0px; padding: 0px; margin: 0px; cursor: text; counter-reset: list-1 0 list-2 0 list-3 0 list-4 0 list-5 0 list-6 0 list-7 0 list-8 0 list-9 0; font-family: Helvetica, Arial, sans-serif; font-size: 12px;&quot;&gt;&lt;font style=&quot;border-color: var(--border-color); font-size: 12px;&quot;&gt;.....&lt;/font&gt;&lt;/p&gt;&lt;p style=&quot;border-color: var(--border-color); font-weight: 400; box-sizing: border-box; outline: 0px; padding: 0px; margin: 0px; cursor: text; counter-reset: list-1 0 list-2 0 list-3 0 list-4 0 list-5 0 list-6 0 list-7 0 list-8 0 list-9 0; font-family: Helvetica, Arial, sans-serif; font-size: 12px;&quot;&gt;&lt;font style=&quot;border-color: var(--border-color); font-size: 12px;&quot;&gt;}&lt;/font&gt;&lt;/p&gt;&lt;/h1&gt;" style="text;html=1;strokeColor=#d6b656;fillColor=#fff2cc;spacing=5;spacingTop=-20;whiteSpace=wrap;overflow=hidden;rounded=0;strokeWidth=1;" parent="WIyWlLk6GJQsqaUBKTNV-1" vertex="1">
          <mxGeometry y="1120" width="310" height="170" as="geometry" />
        </mxCell>
        <mxCell id="Oh3bj5b4CMPEpTqmPRJW-0" value="&lt;h1&gt;&lt;p style=&quot;border-color: var(--border-color); font-weight: 400; box-sizing: border-box; outline: 0px; padding: 0px; margin: 0px; cursor: text; counter-reset: list-1 0 list-2 0 list-3 0 list-4 0 list-5 0 list-6 0 list-7 0 list-8 0 list-9 0; font-family: Helvetica, Arial, sans-serif; font-size: 12px;&quot;&gt;&lt;font style=&quot;border-color: var(--border-color); font-size: 12px;&quot;&gt;{&lt;/font&gt;&lt;/p&gt;&lt;p style=&quot;border-color: var(--border-color); font-weight: 400; box-sizing: border-box; outline: 0px; padding: 0px; margin: 0px; cursor: text; counter-reset: list-1 0 list-2 0 list-3 0 list-4 0 list-5 0 list-6 0 list-7 0 list-8 0 list-9 0; font-family: Helvetica, Arial, sans-serif; font-size: 12px;&quot;&gt;&lt;font style=&quot;border-color: var(--border-color); font-size: 12px;&quot;&gt;Collection: Category&lt;/font&gt;&lt;/p&gt;&lt;p style=&quot;border-color: var(--border-color); font-weight: 400; box-sizing: border-box; outline: 0px; padding: 0px; margin: 0px; cursor: text; counter-reset: list-1 0 list-2 0 list-3 0 list-4 0 list-5 0 list-6 0 list-7 0 list-8 0 list-9 0; font-family: Helvetica, Arial, sans-serif; font-size: 12px;&quot;&gt;&lt;font style=&quot;border-color: var(--border-color); font-size: 12px;&quot;&gt;Document 1:&lt;/font&gt;&lt;/p&gt;&lt;p style=&quot;border-color: var(--border-color); font-weight: 400; box-sizing: border-box; outline: 0px; padding: 0px; margin: 0px; cursor: text; counter-reset: list-1 0 list-2 0 list-3 0 list-4 0 list-5 0 list-6 0 list-7 0 list-8 0 list-9 0; font-family: Helvetica, Arial, sans-serif; font-size: 12px;&quot;&gt;&lt;font style=&quot;border-color: var(--border-color); font-size: 12px;&quot;&gt;&amp;nbsp;&amp;nbsp;&amp;nbsp;&amp;nbsp;&lt;span style=&quot;white-space: pre;&quot;&gt;&#x9;&lt;/span&gt;{&lt;/font&gt;&lt;/p&gt;&lt;p style=&quot;border-color: var(--border-color); font-weight: 400; box-sizing: border-box; outline: 0px; padding: 0px; margin: 0px; cursor: text; counter-reset: list-1 0 list-2 0 list-3 0 list-4 0 list-5 0 list-6 0 list-7 0 list-8 0 list-9 0; font-family: Helvetica, Arial, sans-serif; font-size: 12px;&quot;&gt;&lt;font style=&quot;border-color: var(--border-color); font-size: 12px;&quot;&gt;&lt;span style=&quot;border-color: var(--border-color); box-sizing: border-box; outline: 0px; background-color: rgb(0, 0, 0); padding-bottom: 5px !important;&quot;&gt;&lt;/span&gt;&lt;span style=&quot;border-color: var(--border-color);&quot;&gt;&lt;span style=&quot;border-color: var(--border-color);&quot;&gt;&amp;nbsp;&amp;nbsp;&amp;nbsp;&amp;nbsp;&lt;span style=&quot;&quot;&gt;&lt;span style=&quot;&quot;&gt;&amp;nbsp; &amp;nbsp; category&lt;/span&gt;&lt;/span&gt;&lt;/span&gt;&lt;/span&gt;_id: String&lt;/font&gt;&lt;/p&gt;&lt;p style=&quot;border-color: var(--border-color); font-weight: 400; box-sizing: border-box; outline: 0px; padding: 0px; margin: 0px; cursor: text; counter-reset: list-1 0 list-2 0 list-3 0 list-4 0 list-5 0 list-6 0 list-7 0 list-8 0 list-9 0; font-family: Helvetica, Arial, sans-serif; font-size: 12px;&quot;&gt;&lt;font style=&quot;border-color: var(--border-color); font-size: 12px;&quot;&gt;&lt;span style=&quot;border-color: var(--border-color);&quot;&gt;&amp;nbsp;&amp;nbsp;&amp;nbsp;&amp;nbsp;&lt;span style=&quot;border-color: var(--border-color);&quot;&gt;&lt;span style=&quot;border-color: var(--border-color);&quot;&gt;&amp;nbsp; &amp;nbsp;&amp;nbsp;&lt;/span&gt;&lt;/span&gt;&lt;/span&gt;&lt;span style=&quot;border-color: var(--border-color); box-sizing: border-box; outline: 0px; padding-bottom: 5px !important;&quot;&gt;name: String&lt;/span&gt;&lt;/font&gt;&lt;/p&gt;&lt;p style=&quot;border-color: var(--border-color); font-weight: 400; box-sizing: border-box; outline: 0px; padding: 0px; margin: 0px; cursor: text; counter-reset: list-1 0 list-2 0 list-3 0 list-4 0 list-5 0 list-6 0 list-7 0 list-8 0 list-9 0; font-family: Helvetica, Arial, sans-serif; font-size: 12px;&quot;&gt;&lt;font style=&quot;border-color: var(--border-color); font-size: 12px;&quot;&gt;&lt;span style=&quot;border-color: var(--border-color);&quot;&gt;&amp;nbsp;&amp;nbsp;&amp;nbsp;&amp;nbsp;&lt;span style=&quot;border-color: var(--border-color);&quot;&gt;&lt;span style=&quot;border-color: var(--border-color);&quot;&gt;&amp;nbsp; &amp;nbsp;&amp;nbsp;&lt;/span&gt;&lt;/span&gt;&lt;/span&gt;&lt;span style=&quot;border-color: var(--border-color); box-sizing: border-box; outline: 0px; padding-bottom: 5px !important;&quot;&gt;image: String&lt;/span&gt;&lt;/font&gt;&lt;span style=&quot;background-color: initial; border-color: var(--border-color);&quot;&gt;&amp;nbsp;&amp;nbsp;&lt;/span&gt;&lt;/p&gt;&lt;p style=&quot;border-color: var(--border-color); font-weight: 400; box-sizing: border-box; outline: 0px; padding: 0px; margin: 0px; cursor: text; counter-reset: list-1 0 list-2 0 list-3 0 list-4 0 list-5 0 list-6 0 list-7 0 list-8 0 list-9 0; font-family: Helvetica, Arial, sans-serif; font-size: 12px;&quot;&gt;&lt;span style=&quot;background-color: initial;&quot;&gt;&lt;span style=&quot;white-space: pre;&quot;&gt;&#x9;&lt;/span&gt;}&lt;/span&gt;&lt;/p&gt;&lt;p style=&quot;border-color: var(--border-color); font-weight: 400; box-sizing: border-box; outline: 0px; padding: 0px; margin: 0px; cursor: text; counter-reset: list-1 0 list-2 0 list-3 0 list-4 0 list-5 0 list-6 0 list-7 0 list-8 0 list-9 0; font-family: Helvetica, Arial, sans-serif; font-size: 12px;&quot;&gt;&lt;font style=&quot;border-color: var(--border-color); font-size: 12px;&quot;&gt;Document2:&lt;/font&gt;&lt;/p&gt;&lt;p style=&quot;border-color: var(--border-color); font-weight: 400; box-sizing: border-box; outline: 0px; padding: 0px; margin: 0px; cursor: text; counter-reset: list-1 0 list-2 0 list-3 0 list-4 0 list-5 0 list-6 0 list-7 0 list-8 0 list-9 0; font-family: Helvetica, Arial, sans-serif; font-size: 12px;&quot;&gt;&lt;font style=&quot;border-color: var(--border-color); font-size: 12px;&quot;&gt;.....&lt;/font&gt;&lt;/p&gt;&lt;p style=&quot;border-color: var(--border-color); font-weight: 400; box-sizing: border-box; outline: 0px; padding: 0px; margin: 0px; cursor: text; counter-reset: list-1 0 list-2 0 list-3 0 list-4 0 list-5 0 list-6 0 list-7 0 list-8 0 list-9 0; font-family: Helvetica, Arial, sans-serif; font-size: 12px;&quot;&gt;&lt;font style=&quot;border-color: var(--border-color); font-size: 12px;&quot;&gt;}&lt;/font&gt;&lt;/p&gt;&lt;/h1&gt;" style="text;html=1;strokeColor=#d6b656;fillColor=#fff2cc;spacing=5;spacingTop=-20;whiteSpace=wrap;overflow=hidden;rounded=0;strokeWidth=1;" vertex="1" parent="WIyWlLk6GJQsqaUBKTNV-1">
          <mxGeometry x="632" y="1140" width="310" height="170" as="geometry" />
        </mxCell>
        <mxCell id="Oh3bj5b4CMPEpTqmPRJW-1" value="&lt;h1&gt;&lt;p style=&quot;border-color: var(--border-color); font-weight: 400; box-sizing: border-box; outline: 0px; padding: 0px; margin: 0px; cursor: text; counter-reset: list-1 0 list-2 0 list-3 0 list-4 0 list-5 0 list-6 0 list-7 0 list-8 0 list-9 0; font-family: Helvetica, Arial, sans-serif; font-size: 12px;&quot;&gt;&lt;font style=&quot;border-color: var(--border-color); font-size: 12px;&quot;&gt;{&lt;/font&gt;&lt;/p&gt;&lt;p style=&quot;border-color: var(--border-color); font-weight: 400; box-sizing: border-box; outline: 0px; padding: 0px; margin: 0px; cursor: text; counter-reset: list-1 0 list-2 0 list-3 0 list-4 0 list-5 0 list-6 0 list-7 0 list-8 0 list-9 0; font-family: Helvetica, Arial, sans-serif; font-size: 12px;&quot;&gt;&lt;font style=&quot;border-color: var(--border-color); font-size: 12px;&quot;&gt;Collection: Chat&lt;/font&gt;&lt;/p&gt;&lt;p style=&quot;border-color: var(--border-color); font-weight: 400; box-sizing: border-box; outline: 0px; padding: 0px; margin: 0px; cursor: text; counter-reset: list-1 0 list-2 0 list-3 0 list-4 0 list-5 0 list-6 0 list-7 0 list-8 0 list-9 0; font-family: Helvetica, Arial, sans-serif; font-size: 12px;&quot;&gt;&lt;font style=&quot;border-color: var(--border-color); font-size: 12px;&quot;&gt;Document 1:&lt;/font&gt;&lt;/p&gt;&lt;p style=&quot;border-color: var(--border-color); font-weight: 400; box-sizing: border-box; outline: 0px; padding: 0px; margin: 0px; cursor: text; counter-reset: list-1 0 list-2 0 list-3 0 list-4 0 list-5 0 list-6 0 list-7 0 list-8 0 list-9 0; font-family: Helvetica, Arial, sans-serif; font-size: 12px;&quot;&gt;&lt;font style=&quot;border-color: var(--border-color); font-size: 12px;&quot;&gt;&amp;nbsp;&amp;nbsp;&amp;nbsp;&amp;nbsp;&lt;span style=&quot;white-space: pre;&quot;&gt;&#x9;&lt;/span&gt;{&lt;/font&gt;&lt;/p&gt;&lt;p style=&quot;border-color: var(--border-color); font-weight: 400; box-sizing: border-box; outline: 0px; padding: 0px; margin: 0px; cursor: text; counter-reset: list-1 0 list-2 0 list-3 0 list-4 0 list-5 0 list-6 0 list-7 0 list-8 0 list-9 0; font-family: Helvetica, Arial, sans-serif; font-size: 12px;&quot;&gt;&lt;font style=&quot;border-color: var(--border-color); font-size: 12px;&quot;&gt;&lt;span style=&quot;border-color: var(--border-color); box-sizing: border-box; outline: 0px; background-color: rgb(0, 0, 0); padding-bottom: 5px !important;&quot;&gt;&lt;/span&gt;&lt;span style=&quot;border-color: var(--border-color);&quot;&gt;&lt;span style=&quot;border-color: var(--border-color);&quot;&gt;&amp;nbsp;&amp;nbsp;&amp;nbsp;&amp;nbsp;&lt;span style=&quot;&quot;&gt;&lt;span style=&quot;&quot;&gt;&amp;nbsp; &amp;nbsp; chats:&lt;/span&gt;&lt;/span&gt;&lt;/span&gt;&lt;/span&gt;&lt;/font&gt;&lt;/p&gt;&lt;p style=&quot;border-color: var(--border-color); font-weight: 400; box-sizing: border-box; outline: 0px; padding: 0px; margin: 0px; cursor: text; counter-reset: list-1 0 list-2 0 list-3 0 list-4 0 list-5 0 list-6 0 list-7 0 list-8 0 list-9 0; font-family: Helvetica, Arial, sans-serif; font-size: 12px;&quot;&gt;&lt;font style=&quot;border-color: var(--border-color); font-size: 12px;&quot;&gt;&lt;span style=&quot;border-color: var(--border-color);&quot;&gt;&lt;span style=&quot;border-color: var(--border-color);&quot;&gt;&lt;span style=&quot;&quot;&gt;&lt;span style=&quot;&quot;&gt;&lt;span style=&quot;white-space: pre;&quot;&gt;&#x9;&lt;/span&gt;&lt;span style=&quot;white-space: pre;&quot;&gt;&#x9;&lt;/span&gt;chats 0:&lt;br&gt;&lt;/span&gt;&lt;/span&gt;&lt;/span&gt;&lt;/span&gt;&lt;/font&gt;&lt;/p&gt;&lt;p style=&quot;border-color: var(--border-color); font-weight: 400; box-sizing: border-box; outline: 0px; padding: 0px; margin: 0px; cursor: text; counter-reset: list-1 0 list-2 0 list-3 0 list-4 0 list-5 0 list-6 0 list-7 0 list-8 0 list-9 0; font-family: Helvetica, Arial, sans-serif; font-size: 12px;&quot;&gt;&lt;font style=&quot;border-color: var(--border-color); font-size: 12px;&quot;&gt;&lt;span style=&quot;border-color: var(--border-color);&quot;&gt;&lt;span style=&quot;border-color: var(--border-color);&quot;&gt;&lt;span style=&quot;&quot;&gt;&lt;span style=&quot;&quot;&gt;&lt;span style=&quot;white-space: pre;&quot;&gt;&#x9;&lt;/span&gt;&lt;span style=&quot;white-space: pre;&quot;&gt;&#x9;&lt;/span&gt;{&lt;br&gt;&lt;/span&gt;&lt;/span&gt;&lt;/span&gt;&lt;/span&gt;&lt;/font&gt;&lt;/p&gt;&lt;p style=&quot;border-color: var(--border-color); font-weight: 400; box-sizing: border-box; outline: 0px; padding: 0px; margin: 0px; cursor: text; counter-reset: list-1 0 list-2 0 list-3 0 list-4 0 list-5 0 list-6 0 list-7 0 list-8 0 list-9 0; font-family: Helvetica, Arial, sans-serif; font-size: 12px;&quot;&gt;&lt;font style=&quot;border-color: var(--border-color); font-size: 12px;&quot;&gt;&lt;span style=&quot;border-color: var(--border-color);&quot;&gt;&lt;span style=&quot;border-color: var(--border-color);&quot;&gt;&lt;span style=&quot;&quot;&gt;&lt;span style=&quot;&quot;&gt;&lt;span style=&quot;white-space: pre;&quot;&gt;&#x9;&lt;/span&gt;&lt;span style=&quot;white-space: pre;&quot;&gt;&#x9;&lt;/span&gt;message: String&lt;br&gt;&lt;/span&gt;&lt;/span&gt;&lt;/span&gt;&lt;/span&gt;&lt;/font&gt;&lt;/p&gt;&lt;p style=&quot;border-color: var(--border-color); font-weight: 400; box-sizing: border-box; outline: 0px; padding: 0px; margin: 0px; cursor: text; counter-reset: list-1 0 list-2 0 list-3 0 list-4 0 list-5 0 list-6 0 list-7 0 list-8 0 list-9 0; font-family: Helvetica, Arial, sans-serif; font-size: 12px;&quot;&gt;&lt;font style=&quot;border-color: var(--border-color); font-size: 12px;&quot;&gt;&lt;span style=&quot;border-color: var(--border-color);&quot;&gt;&lt;span style=&quot;border-color: var(--border-color);&quot;&gt;&lt;span style=&quot;&quot;&gt;&lt;span style=&quot;&quot;&gt;&lt;span style=&quot;white-space: pre;&quot;&gt;&#x9;&lt;/span&gt;&lt;span style=&quot;white-space: pre;&quot;&gt;&#x9;&lt;/span&gt;senderId: String&lt;br&gt;&lt;/span&gt;&lt;/span&gt;&lt;/span&gt;&lt;/span&gt;&lt;/font&gt;&lt;/p&gt;&lt;p style=&quot;border-color: var(--border-color); font-weight: 400; box-sizing: border-box; outline: 0px; padding: 0px; margin: 0px; cursor: text; counter-reset: list-1 0 list-2 0 list-3 0 list-4 0 list-5 0 list-6 0 list-7 0 list-8 0 list-9 0; font-family: Helvetica, Arial, sans-serif; font-size: 12px;&quot;&gt;&lt;font style=&quot;border-color: var(--border-color); font-size: 12px;&quot;&gt;&lt;span style=&quot;border-color: var(--border-color);&quot;&gt;&lt;span style=&quot;border-color: var(--border-color);&quot;&gt;&lt;span style=&quot;&quot;&gt;&lt;span style=&quot;&quot;&gt;&lt;span style=&quot;white-space: pre;&quot;&gt;&#x9;&lt;/span&gt;&lt;span style=&quot;white-space: pre;&quot;&gt;&#x9;&lt;/span&gt;sort_time: Timestamp&lt;br&gt;&lt;/span&gt;&lt;/span&gt;&lt;/span&gt;&lt;/span&gt;&lt;/font&gt;&lt;/p&gt;&lt;p style=&quot;border-color: var(--border-color); font-weight: 400; box-sizing: border-box; outline: 0px; padding: 0px; margin: 0px; cursor: text; counter-reset: list-1 0 list-2 0 list-3 0 list-4 0 list-5 0 list-6 0 list-7 0 list-8 0 list-9 0; font-family: Helvetica, Arial, sans-serif; font-size: 12px;&quot;&gt;&lt;font style=&quot;border-color: var(--border-color); font-size: 12px;&quot;&gt;&lt;span style=&quot;border-color: var(--border-color);&quot;&gt;&lt;span style=&quot;border-color: var(--border-color);&quot;&gt;&lt;span style=&quot;&quot;&gt;&lt;span style=&quot;&quot;&gt;&lt;span style=&quot;white-space: pre;&quot;&gt;&#x9;&lt;/span&gt;&lt;span style=&quot;white-space: pre;&quot;&gt;&#x9;&lt;/span&gt;userimage: String&lt;br&gt;&lt;/span&gt;&lt;/span&gt;&lt;/span&gt;&lt;/span&gt;&lt;/font&gt;&lt;/p&gt;&lt;p style=&quot;border-color: var(--border-color); font-weight: 400; box-sizing: border-box; outline: 0px; padding: 0px; margin: 0px; cursor: text; counter-reset: list-1 0 list-2 0 list-3 0 list-4 0 list-5 0 list-6 0 list-7 0 list-8 0 list-9 0; font-family: Helvetica, Arial, sans-serif; font-size: 12px;&quot;&gt;&lt;font style=&quot;border-color: var(--border-color); font-size: 12px;&quot;&gt;&lt;span style=&quot;border-color: var(--border-color);&quot;&gt;&lt;span style=&quot;border-color: var(--border-color);&quot;&gt;&lt;span style=&quot;&quot;&gt;&lt;span style=&quot;&quot;&gt;&lt;span style=&quot;white-space: pre;&quot;&gt;&#x9;&lt;/span&gt;&lt;span style=&quot;white-space: pre;&quot;&gt;&#x9;&lt;/span&gt;username: String&lt;br&gt;&lt;/span&gt;&lt;/span&gt;&lt;/span&gt;&lt;/span&gt;&lt;/font&gt;&lt;/p&gt;&lt;p style=&quot;border-color: var(--border-color); font-weight: 400; box-sizing: border-box; outline: 0px; padding: 0px; margin: 0px; cursor: text; counter-reset: list-1 0 list-2 0 list-3 0 list-4 0 list-5 0 list-6 0 list-7 0 list-8 0 list-9 0; font-family: Helvetica, Arial, sans-serif; font-size: 12px;&quot;&gt;&lt;font style=&quot;border-color: var(--border-color); font-size: 12px;&quot;&gt;&lt;span style=&quot;border-color: var(--border-color);&quot;&gt;&lt;span style=&quot;border-color: var(--border-color);&quot;&gt;&lt;span style=&quot;&quot;&gt;&lt;span style=&quot;&quot;&gt;&lt;span style=&quot;white-space: pre;&quot;&gt;&#x9;&lt;/span&gt;&lt;span style=&quot;white-space: pre;&quot;&gt;&#x9;&lt;/span&gt;}&lt;br&gt;&lt;/span&gt;&lt;/span&gt;&lt;/span&gt;&lt;/span&gt;&lt;/font&gt;&lt;/p&gt;&lt;p style=&quot;border-color: var(--border-color); font-weight: 400; box-sizing: border-box; outline: 0px; padding: 0px; margin: 0px; cursor: text; counter-reset: list-1 0 list-2 0 list-3 0 list-4 0 list-5 0 list-6 0 list-7 0 list-8 0 list-9 0; font-family: Helvetica, Arial, sans-serif; font-size: 12px;&quot;&gt;&lt;font style=&quot;border-color: var(--border-color); font-size: 12px;&quot;&gt;&lt;span style=&quot;border-color: var(--border-color);&quot;&gt;&lt;span style=&quot;border-color: var(--border-color);&quot;&gt;&lt;span style=&quot;&quot;&gt;&lt;span style=&quot;&quot;&gt;&lt;span style=&quot;white-space: pre;&quot;&gt;&#x9;&lt;/span&gt;&lt;span style=&quot;white-space: pre;&quot;&gt;&#x9;&lt;/span&gt;chats 1:&lt;br&gt;&lt;/span&gt;&lt;/span&gt;&lt;/span&gt;&lt;/span&gt;&lt;/font&gt;&lt;/p&gt;&lt;p style=&quot;border-color: var(--border-color); font-weight: 400; box-sizing: border-box; outline: 0px; padding: 0px; margin: 0px; cursor: text; counter-reset: list-1 0 list-2 0 list-3 0 list-4 0 list-5 0 list-6 0 list-7 0 list-8 0 list-9 0; font-family: Helvetica, Arial, sans-serif; font-size: 12px;&quot;&gt;&lt;font style=&quot;border-color: var(--border-color); font-size: 12px;&quot;&gt;&lt;span style=&quot;border-color: var(--border-color);&quot;&gt;&lt;span style=&quot;border-color: var(--border-color);&quot;&gt;&lt;span style=&quot;&quot;&gt;&lt;span style=&quot;&quot;&gt;&lt;span style=&quot;white-space: pre;&quot;&gt;&#x9;&lt;/span&gt;&lt;span style=&quot;white-space: pre;&quot;&gt;&#x9;&lt;/span&gt;...&lt;br&gt;&lt;/span&gt;&lt;/span&gt;&lt;/span&gt;&lt;/span&gt;&lt;/font&gt;&lt;/p&gt;&lt;p style=&quot;border-color: var(--border-color); font-weight: 400; box-sizing: border-box; outline: 0px; padding: 0px; margin: 0px; cursor: text; counter-reset: list-1 0 list-2 0 list-3 0 list-4 0 list-5 0 list-6 0 list-7 0 list-8 0 list-9 0; font-family: Helvetica, Arial, sans-serif; font-size: 12px;&quot;&gt;&lt;font style=&quot;border-color: var(--border-color); font-size: 12px;&quot;&gt;&lt;span style=&quot;border-color: var(--border-color);&quot;&gt;&amp;nbsp;&amp;nbsp;&amp;nbsp;&amp;nbsp;&lt;span style=&quot;border-color: var(--border-color);&quot;&gt;&lt;span style=&quot;border-color: var(--border-color);&quot;&gt;&amp;nbsp; &amp;nbsp; lastmessage: String&lt;/span&gt;&lt;/span&gt;&lt;/span&gt;&lt;/font&gt;&lt;/p&gt;&lt;p style=&quot;border-color: var(--border-color); font-weight: 400; box-sizing: border-box; outline: 0px; padding: 0px; margin: 0px; cursor: text; counter-reset: list-1 0 list-2 0 list-3 0 list-4 0 list-5 0 list-6 0 list-7 0 list-8 0 list-9 0; font-family: Helvetica, Arial, sans-serif; font-size: 12px;&quot;&gt;&lt;font style=&quot;border-color: var(--border-color); font-size: 12px;&quot;&gt;&lt;span style=&quot;border-color: var(--border-color);&quot;&gt;&lt;span style=&quot;border-color: var(--border-color);&quot;&gt;&lt;span style=&quot;border-color: var(--border-color);&quot;&gt;&lt;span style=&quot;white-space: pre;&quot;&gt;&#x9;&lt;/span&gt;lastmessagetime: Timestamp&lt;br&gt;&lt;/span&gt;&lt;/span&gt;&lt;/span&gt;&lt;/font&gt;&lt;/p&gt;&lt;p style=&quot;border-color: var(--border-color); font-weight: 400; box-sizing: border-box; outline: 0px; padding: 0px; margin: 0px; cursor: text; counter-reset: list-1 0 list-2 0 list-3 0 list-4 0 list-5 0 list-6 0 list-7 0 list-8 0 list-9 0; font-family: Helvetica, Arial, sans-serif; font-size: 12px;&quot;&gt;&lt;span style=&quot;white-space: pre;&quot;&gt;&#x9;&lt;/span&gt;userid: String (Reference to Users Document)&lt;/p&gt;&lt;p style=&quot;border-color: var(--border-color); font-weight: 400; box-sizing: border-box; outline: 0px; padding: 0px; margin: 0px; cursor: text; counter-reset: list-1 0 list-2 0 list-3 0 list-4 0 list-5 0 list-6 0 list-7 0 list-8 0 list-9 0; font-family: Helvetica, Arial, sans-serif; font-size: 12px;&quot;&gt;&lt;span style=&quot;background-color: initial;&quot;&gt;&lt;span style=&quot;white-space: pre;&quot;&gt;&#x9;&lt;/span&gt;}&lt;/span&gt;&lt;/p&gt;&lt;p style=&quot;border-color: var(--border-color); font-weight: 400; box-sizing: border-box; outline: 0px; padding: 0px; margin: 0px; cursor: text; counter-reset: list-1 0 list-2 0 list-3 0 list-4 0 list-5 0 list-6 0 list-7 0 list-8 0 list-9 0; font-family: Helvetica, Arial, sans-serif; font-size: 12px;&quot;&gt;&lt;font style=&quot;border-color: var(--border-color); font-size: 12px;&quot;&gt;Document2:&lt;/font&gt;&lt;/p&gt;&lt;p style=&quot;border-color: var(--border-color); font-weight: 400; box-sizing: border-box; outline: 0px; padding: 0px; margin: 0px; cursor: text; counter-reset: list-1 0 list-2 0 list-3 0 list-4 0 list-5 0 list-6 0 list-7 0 list-8 0 list-9 0; font-family: Helvetica, Arial, sans-serif; font-size: 12px;&quot;&gt;&lt;font style=&quot;border-color: var(--border-color); font-size: 12px;&quot;&gt;.....&lt;/font&gt;&lt;/p&gt;&lt;p style=&quot;border-color: var(--border-color); font-weight: 400; box-sizing: border-box; outline: 0px; padding: 0px; margin: 0px; cursor: text; counter-reset: list-1 0 list-2 0 list-3 0 list-4 0 list-5 0 list-6 0 list-7 0 list-8 0 list-9 0; font-family: Helvetica, Arial, sans-serif; font-size: 12px;&quot;&gt;&lt;font style=&quot;border-color: var(--border-color); font-size: 12px;&quot;&gt;}&lt;/font&gt;&lt;/p&gt;&lt;/h1&gt;" style="text;html=1;strokeColor=#d6b656;fillColor=#fff2cc;spacing=5;spacingTop=-20;whiteSpace=wrap;overflow=hidden;rounded=0;strokeWidth=1;" vertex="1" parent="WIyWlLk6GJQsqaUBKTNV-1">
          <mxGeometry y="1290" width="310" height="340" as="geometry" />
        </mxCell>
        <mxCell id="Oh3bj5b4CMPEpTqmPRJW-2" value="&lt;h1&gt;&lt;p style=&quot;border-color: var(--border-color); font-weight: 400; box-sizing: border-box; outline: 0px; padding: 0px; margin: 0px; cursor: text; counter-reset: list-1 0 list-2 0 list-3 0 list-4 0 list-5 0 list-6 0 list-7 0 list-8 0 list-9 0; font-family: Helvetica, Arial, sans-serif; font-size: 12px;&quot;&gt;&lt;font style=&quot;border-color: var(--border-color); font-size: 12px;&quot;&gt;{&lt;/font&gt;&lt;/p&gt;&lt;p style=&quot;border-color: var(--border-color); font-weight: 400; box-sizing: border-box; outline: 0px; padding: 0px; margin: 0px; cursor: text; counter-reset: list-1 0 list-2 0 list-3 0 list-4 0 list-5 0 list-6 0 list-7 0 list-8 0 list-9 0; font-family: Helvetica, Arial, sans-serif; font-size: 12px;&quot;&gt;&lt;font style=&quot;border-color: var(--border-color); font-size: 12px;&quot;&gt;Collection: Favorite&lt;/font&gt;&lt;/p&gt;&lt;p style=&quot;border-color: var(--border-color); font-weight: 400; box-sizing: border-box; outline: 0px; padding: 0px; margin: 0px; cursor: text; counter-reset: list-1 0 list-2 0 list-3 0 list-4 0 list-5 0 list-6 0 list-7 0 list-8 0 list-9 0; font-family: Helvetica, Arial, sans-serif; font-size: 12px;&quot;&gt;&lt;font style=&quot;border-color: var(--border-color); font-size: 12px;&quot;&gt;Document 1:&lt;/font&gt;&lt;/p&gt;&lt;p style=&quot;border-color: var(--border-color); font-weight: 400; box-sizing: border-box; outline: 0px; padding: 0px; margin: 0px; cursor: text; counter-reset: list-1 0 list-2 0 list-3 0 list-4 0 list-5 0 list-6 0 list-7 0 list-8 0 list-9 0; font-family: Helvetica, Arial, sans-serif; font-size: 12px;&quot;&gt;&lt;font style=&quot;border-color: var(--border-color); font-size: 12px;&quot;&gt;&amp;nbsp;&amp;nbsp;&amp;nbsp;&amp;nbsp;&lt;span style=&quot;white-space: pre;&quot;&gt;&#x9;&lt;/span&gt;{&lt;/font&gt;&lt;/p&gt;&lt;p style=&quot;border-color: var(--border-color); font-weight: 400; box-sizing: border-box; outline: 0px; padding: 0px; margin: 0px; cursor: text; counter-reset: list-1 0 list-2 0 list-3 0 list-4 0 list-5 0 list-6 0 list-7 0 list-8 0 list-9 0; font-family: Helvetica, Arial, sans-serif; font-size: 12px;&quot;&gt;&lt;font style=&quot;border-color: var(--border-color); font-size: 12px;&quot;&gt;&lt;span style=&quot;border-color: var(--border-color); box-sizing: border-box; outline: 0px; background-color: rgb(0, 0, 0); padding-bottom: 5px !important;&quot;&gt;&lt;/span&gt;&lt;span style=&quot;border-color: var(--border-color);&quot;&gt;&lt;span style=&quot;border-color: var(--border-color);&quot;&gt;&amp;nbsp;&amp;nbsp;&amp;nbsp;&amp;nbsp;&lt;span style=&quot;&quot;&gt;&lt;span style=&quot;&quot;&gt;&amp;nbsp; &amp;nbsp; products:&lt;/span&gt;&lt;/span&gt;&lt;/span&gt;&lt;/span&gt;&lt;/font&gt;&lt;/p&gt;&lt;p style=&quot;border-color: var(--border-color); font-weight: 400; box-sizing: border-box; outline: 0px; padding: 0px; margin: 0px; cursor: text; counter-reset: list-1 0 list-2 0 list-3 0 list-4 0 list-5 0 list-6 0 list-7 0 list-8 0 list-9 0; font-family: Helvetica, Arial, sans-serif; font-size: 12px;&quot;&gt;&lt;font style=&quot;border-color: var(--border-color); font-size: 12px;&quot;&gt;&lt;span style=&quot;border-color: var(--border-color);&quot;&gt;&lt;span style=&quot;border-color: var(--border-color);&quot;&gt;&lt;span style=&quot;&quot;&gt;&lt;span style=&quot;&quot;&gt;&lt;span style=&quot;white-space: pre;&quot;&gt;&#x9;&lt;/span&gt;&lt;span style=&quot;white-space: pre;&quot;&gt;&#x9;&lt;/span&gt;products 0:&lt;br&gt;&lt;/span&gt;&lt;/span&gt;&lt;/span&gt;&lt;/span&gt;&lt;/font&gt;&lt;/p&gt;&lt;p style=&quot;border-color: var(--border-color); font-weight: 400; box-sizing: border-box; outline: 0px; padding: 0px; margin: 0px; cursor: text; counter-reset: list-1 0 list-2 0 list-3 0 list-4 0 list-5 0 list-6 0 list-7 0 list-8 0 list-9 0; font-family: Helvetica, Arial, sans-serif; font-size: 12px;&quot;&gt;&lt;font style=&quot;border-color: var(--border-color); font-size: 12px;&quot;&gt;&lt;span style=&quot;border-color: var(--border-color);&quot;&gt;&lt;span style=&quot;border-color: var(--border-color);&quot;&gt;&lt;span style=&quot;&quot;&gt;&lt;span style=&quot;&quot;&gt;&lt;span style=&quot;white-space: pre;&quot;&gt;&#x9;&lt;/span&gt;&lt;span style=&quot;white-space: pre;&quot;&gt;&#x9;&lt;/span&gt;{&lt;br&gt;&lt;/span&gt;&lt;/span&gt;&lt;/span&gt;&lt;/span&gt;&lt;/font&gt;&lt;/p&gt;&lt;p style=&quot;border-color: var(--border-color); font-weight: 400; box-sizing: border-box; outline: 0px; padding: 0px; margin: 0px; cursor: text; counter-reset: list-1 0 list-2 0 list-3 0 list-4 0 list-5 0 list-6 0 list-7 0 list-8 0 list-9 0; font-family: Helvetica, Arial, sans-serif; font-size: 12px;&quot;&gt;&lt;font style=&quot;border-color: var(--border-color); font-size: 12px;&quot;&gt;&lt;span style=&quot;border-color: var(--border-color);&quot;&gt;&lt;span style=&quot;border-color: var(--border-color);&quot;&gt;&lt;span style=&quot;&quot;&gt;&lt;span style=&quot;&quot;&gt;&lt;span style=&quot;white-space: pre;&quot;&gt;&#x9;&lt;/span&gt;&lt;span style=&quot;white-space: pre;&quot;&gt;&#x9;&lt;/span&gt;category: String (Reference to Category Doc)&lt;br&gt;&lt;/span&gt;&lt;/span&gt;&lt;/span&gt;&lt;/span&gt;&lt;/font&gt;&lt;/p&gt;&lt;p style=&quot;border-color: var(--border-color); font-weight: 400; box-sizing: border-box; outline: 0px; padding: 0px; margin: 0px; cursor: text; counter-reset: list-1 0 list-2 0 list-3 0 list-4 0 list-5 0 list-6 0 list-7 0 list-8 0 list-9 0; font-family: Helvetica, Arial, sans-serif; font-size: 12px;&quot;&gt;&lt;font style=&quot;border-color: var(--border-color); font-size: 12px;&quot;&gt;&lt;span style=&quot;border-color: var(--border-color);&quot;&gt;&lt;span style=&quot;border-color: var(--border-color);&quot;&gt;&lt;span style=&quot;&quot;&gt;&lt;span style=&quot;&quot;&gt;&lt;span style=&quot;white-space: pre;&quot;&gt;&#x9;&lt;/span&gt;&lt;span style=&quot;white-space: pre;&quot;&gt;&#x9;&lt;/span&gt;image: String&lt;br&gt;&lt;/span&gt;&lt;/span&gt;&lt;/span&gt;&lt;/span&gt;&lt;/font&gt;&lt;/p&gt;&lt;p style=&quot;border-color: var(--border-color); font-weight: 400; box-sizing: border-box; outline: 0px; padding: 0px; margin: 0px; cursor: text; counter-reset: list-1 0 list-2 0 list-3 0 list-4 0 list-5 0 list-6 0 list-7 0 list-8 0 list-9 0; font-family: Helvetica, Arial, sans-serif; font-size: 12px;&quot;&gt;&lt;font style=&quot;border-color: var(--border-color); font-size: 12px;&quot;&gt;&lt;span style=&quot;border-color: var(--border-color);&quot;&gt;&lt;span style=&quot;border-color: var(--border-color);&quot;&gt;&lt;span style=&quot;&quot;&gt;&lt;span style=&quot;&quot;&gt;&lt;span style=&quot;white-space: pre;&quot;&gt;&#x9;&lt;/span&gt;&lt;span style=&quot;white-space: pre;&quot;&gt;&#x9;&lt;/span&gt;kilo: Number&lt;br&gt;&lt;/span&gt;&lt;/span&gt;&lt;/span&gt;&lt;/span&gt;&lt;/font&gt;&lt;/p&gt;&lt;p style=&quot;border-color: var(--border-color); font-weight: 400; box-sizing: border-box; outline: 0px; padding: 0px; margin: 0px; cursor: text; counter-reset: list-1 0 list-2 0 list-3 0 list-4 0 list-5 0 list-6 0 list-7 0 list-8 0 list-9 0; font-family: Helvetica, Arial, sans-serif; font-size: 12px;&quot;&gt;&lt;font style=&quot;border-color: var(--border-color); font-size: 12px;&quot;&gt;&lt;span style=&quot;border-color: var(--border-color);&quot;&gt;&lt;span style=&quot;border-color: var(--border-color);&quot;&gt;&lt;span style=&quot;&quot;&gt;&lt;span style=&quot;&quot;&gt;&lt;span style=&quot;white-space: pre;&quot;&gt;&#x9;&lt;/span&gt;&lt;span style=&quot;white-space: pre;&quot;&gt;&#x9;&lt;/span&gt;price: Number&lt;br&gt;&lt;/span&gt;&lt;/span&gt;&lt;/span&gt;&lt;/span&gt;&lt;/font&gt;&lt;/p&gt;&lt;p style=&quot;border-color: var(--border-color); font-weight: 400; box-sizing: border-box; outline: 0px; padding: 0px; margin: 0px; cursor: text; counter-reset: list-1 0 list-2 0 list-3 0 list-4 0 list-5 0 list-6 0 list-7 0 list-8 0 list-9 0; font-family: Helvetica, Arial, sans-serif; font-size: 12px;&quot;&gt;&lt;font style=&quot;border-color: var(--border-color); font-size: 12px;&quot;&gt;&lt;span style=&quot;border-color: var(--border-color);&quot;&gt;&lt;span style=&quot;border-color: var(--border-color);&quot;&gt;&lt;span style=&quot;&quot;&gt;&lt;span style=&quot;&quot;&gt;&lt;span style=&quot;white-space: pre;&quot;&gt;&#x9;&lt;/span&gt;&lt;span style=&quot;white-space: pre;&quot;&gt;&#x9;&lt;/span&gt;name: String&lt;br&gt;&lt;/span&gt;&lt;/span&gt;&lt;/span&gt;&lt;/span&gt;&lt;/font&gt;&lt;/p&gt;&lt;p style=&quot;border-color: var(--border-color); font-weight: 400; box-sizing: border-box; outline: 0px; padding: 0px; margin: 0px; cursor: text; counter-reset: list-1 0 list-2 0 list-3 0 list-4 0 list-5 0 list-6 0 list-7 0 list-8 0 list-9 0; font-family: Helvetica, Arial, sans-serif; font-size: 12px;&quot;&gt;&lt;span style=&quot;white-space: pre;&quot;&gt;&#x9;&lt;/span&gt;&lt;span style=&quot;white-space: pre;&quot;&gt;&#x9;&lt;/span&gt;product_id: String (Reference to Product Doc&lt;span style=&quot;background-color: initial;&quot;&gt;)&lt;/span&gt;&lt;/p&gt;&lt;p style=&quot;border-color: var(--border-color); font-weight: 400; box-sizing: border-box; outline: 0px; padding: 0px; margin: 0px; cursor: text; counter-reset: list-1 0 list-2 0 list-3 0 list-4 0 list-5 0 list-6 0 list-7 0 list-8 0 list-9 0; font-family: Helvetica, Arial, sans-serif; font-size: 12px;&quot;&gt;&lt;span style=&quot;background-color: initial;&quot;&gt;&lt;span style=&quot;white-space: pre;&quot;&gt;&#x9;&lt;/span&gt;&lt;span style=&quot;white-space: pre;&quot;&gt;&#x9;&lt;/span&gt;quantity_buy: Number&lt;br&gt;&lt;/span&gt;&lt;/p&gt;&lt;p style=&quot;border-color: var(--border-color); font-weight: 400; box-sizing: border-box; outline: 0px; padding: 0px; margin: 0px; cursor: text; counter-reset: list-1 0 list-2 0 list-3 0 list-4 0 list-5 0 list-6 0 list-7 0 list-8 0 list-9 0; font-family: Helvetica, Arial, sans-serif; font-size: 12px;&quot;&gt;&lt;font style=&quot;border-color: var(--border-color); font-size: 12px;&quot;&gt;&lt;span style=&quot;border-color: var(--border-color);&quot;&gt;&lt;span style=&quot;border-color: var(--border-color);&quot;&gt;&lt;span style=&quot;&quot;&gt;&lt;span style=&quot;&quot;&gt;&lt;span style=&quot;white-space: pre;&quot;&gt;&#x9;&lt;/span&gt;&lt;span style=&quot;white-space: pre;&quot;&gt;&#x9;&lt;/span&gt;}&lt;br&gt;&lt;/span&gt;&lt;/span&gt;&lt;/span&gt;&lt;/span&gt;&lt;/font&gt;&lt;/p&gt;&lt;p style=&quot;border-color: var(--border-color); font-weight: 400; box-sizing: border-box; outline: 0px; padding: 0px; margin: 0px; cursor: text; counter-reset: list-1 0 list-2 0 list-3 0 list-4 0 list-5 0 list-6 0 list-7 0 list-8 0 list-9 0; font-family: Helvetica, Arial, sans-serif; font-size: 12px;&quot;&gt;&lt;font style=&quot;border-color: var(--border-color); font-size: 12px;&quot;&gt;&lt;span style=&quot;border-color: var(--border-color);&quot;&gt;&lt;span style=&quot;border-color: var(--border-color);&quot;&gt;&lt;span style=&quot;&quot;&gt;&lt;span style=&quot;&quot;&gt;&lt;span style=&quot;white-space: pre;&quot;&gt;&#x9;&lt;/span&gt;&lt;span style=&quot;white-space: pre;&quot;&gt;&#x9;&lt;/span&gt;products 1:&lt;br&gt;&lt;/span&gt;&lt;/span&gt;&lt;/span&gt;&lt;/span&gt;&lt;/font&gt;&lt;/p&gt;&lt;p style=&quot;border-color: var(--border-color); font-weight: 400; box-sizing: border-box; outline: 0px; padding: 0px; margin: 0px; cursor: text; counter-reset: list-1 0 list-2 0 list-3 0 list-4 0 list-5 0 list-6 0 list-7 0 list-8 0 list-9 0; font-family: Helvetica, Arial, sans-serif; font-size: 12px;&quot;&gt;&lt;font style=&quot;border-color: var(--border-color); font-size: 12px;&quot;&gt;&lt;span style=&quot;border-color: var(--border-color);&quot;&gt;&lt;span style=&quot;border-color: var(--border-color);&quot;&gt;&lt;span style=&quot;&quot;&gt;&lt;span style=&quot;&quot;&gt;&lt;span style=&quot;white-space: pre;&quot;&gt;&#x9;&lt;/span&gt;&lt;span style=&quot;white-space: pre;&quot;&gt;&#x9;&lt;/span&gt;...&lt;/span&gt;&lt;/span&gt;&lt;/span&gt;&lt;/span&gt;&lt;/font&gt;&lt;/p&gt;&lt;p style=&quot;border-color: var(--border-color); font-weight: 400; box-sizing: border-box; outline: 0px; padding: 0px; margin: 0px; cursor: text; counter-reset: list-1 0 list-2 0 list-3 0 list-4 0 list-5 0 list-6 0 list-7 0 list-8 0 list-9 0; font-family: Helvetica, Arial, sans-serif; font-size: 12px;&quot;&gt;&lt;span style=&quot;background-color: initial;&quot;&gt;&lt;span style=&quot;white-space: pre;&quot;&gt;&#x9;&lt;/span&gt;}&lt;/span&gt;&lt;/p&gt;&lt;p style=&quot;border-color: var(--border-color); font-weight: 400; box-sizing: border-box; outline: 0px; padding: 0px; margin: 0px; cursor: text; counter-reset: list-1 0 list-2 0 list-3 0 list-4 0 list-5 0 list-6 0 list-7 0 list-8 0 list-9 0; font-family: Helvetica, Arial, sans-serif; font-size: 12px;&quot;&gt;&lt;font style=&quot;border-color: var(--border-color); font-size: 12px;&quot;&gt;Document2:&lt;/font&gt;&lt;/p&gt;&lt;p style=&quot;border-color: var(--border-color); font-weight: 400; box-sizing: border-box; outline: 0px; padding: 0px; margin: 0px; cursor: text; counter-reset: list-1 0 list-2 0 list-3 0 list-4 0 list-5 0 list-6 0 list-7 0 list-8 0 list-9 0; font-family: Helvetica, Arial, sans-serif; font-size: 12px;&quot;&gt;&lt;font style=&quot;border-color: var(--border-color); font-size: 12px;&quot;&gt;.....&lt;/font&gt;&lt;/p&gt;&lt;p style=&quot;border-color: var(--border-color); font-weight: 400; box-sizing: border-box; outline: 0px; padding: 0px; margin: 0px; cursor: text; counter-reset: list-1 0 list-2 0 list-3 0 list-4 0 list-5 0 list-6 0 list-7 0 list-8 0 list-9 0; font-family: Helvetica, Arial, sans-serif; font-size: 12px;&quot;&gt;&lt;font style=&quot;border-color: var(--border-color); font-size: 12px;&quot;&gt;}&lt;/font&gt;&lt;/p&gt;&lt;/h1&gt;" style="text;html=1;strokeColor=#d6b656;fillColor=#fff2cc;spacing=5;spacingTop=-20;whiteSpace=wrap;overflow=hidden;rounded=0;strokeWidth=1;" vertex="1" parent="WIyWlLk6GJQsqaUBKTNV-1">
          <mxGeometry x="942" y="988" width="320" height="310" as="geometry" />
        </mxCell>
        <mxCell id="Oh3bj5b4CMPEpTqmPRJW-3" value="&lt;h1&gt;&lt;p style=&quot;border-color: var(--border-color); font-weight: 400; box-sizing: border-box; outline: 0px; padding: 0px; margin: 0px; cursor: text; counter-reset: list-1 0 list-2 0 list-3 0 list-4 0 list-5 0 list-6 0 list-7 0 list-8 0 list-9 0; font-family: Helvetica, Arial, sans-serif; font-size: 12px;&quot;&gt;&lt;font style=&quot;border-color: var(--border-color); font-size: 12px;&quot;&gt;{&lt;/font&gt;&lt;/p&gt;&lt;p style=&quot;border-color: var(--border-color); font-weight: 400; box-sizing: border-box; outline: 0px; padding: 0px; margin: 0px; cursor: text; counter-reset: list-1 0 list-2 0 list-3 0 list-4 0 list-5 0 list-6 0 list-7 0 list-8 0 list-9 0; font-family: Helvetica, Arial, sans-serif; font-size: 12px;&quot;&gt;&lt;font style=&quot;border-color: var(--border-color); font-size: 12px;&quot;&gt;Collection: Cart&lt;/font&gt;&lt;/p&gt;&lt;p style=&quot;border-color: var(--border-color); font-weight: 400; box-sizing: border-box; outline: 0px; padding: 0px; margin: 0px; cursor: text; counter-reset: list-1 0 list-2 0 list-3 0 list-4 0 list-5 0 list-6 0 list-7 0 list-8 0 list-9 0; font-family: Helvetica, Arial, sans-serif; font-size: 12px;&quot;&gt;&lt;font style=&quot;border-color: var(--border-color); font-size: 12px;&quot;&gt;Document 1:&lt;/font&gt;&lt;/p&gt;&lt;p style=&quot;border-color: var(--border-color); font-weight: 400; box-sizing: border-box; outline: 0px; padding: 0px; margin: 0px; cursor: text; counter-reset: list-1 0 list-2 0 list-3 0 list-4 0 list-5 0 list-6 0 list-7 0 list-8 0 list-9 0; font-family: Helvetica, Arial, sans-serif; font-size: 12px;&quot;&gt;&lt;font style=&quot;border-color: var(--border-color); font-size: 12px;&quot;&gt;&amp;nbsp;&amp;nbsp;&amp;nbsp;&amp;nbsp;&lt;span style=&quot;white-space: pre;&quot;&gt;&#x9;&lt;/span&gt;{&lt;/font&gt;&lt;/p&gt;&lt;p style=&quot;border-color: var(--border-color); font-weight: 400; box-sizing: border-box; outline: 0px; padding: 0px; margin: 0px; cursor: text; counter-reset: list-1 0 list-2 0 list-3 0 list-4 0 list-5 0 list-6 0 list-7 0 list-8 0 list-9 0; font-family: Helvetica, Arial, sans-serif; font-size: 12px;&quot;&gt;&lt;font style=&quot;border-color: var(--border-color); font-size: 12px;&quot;&gt;&lt;span style=&quot;border-color: var(--border-color); box-sizing: border-box; outline: 0px; background-color: rgb(0, 0, 0); padding-bottom: 5px !important;&quot;&gt;&lt;/span&gt;&lt;span style=&quot;border-color: var(--border-color);&quot;&gt;&lt;span style=&quot;border-color: var(--border-color);&quot;&gt;&amp;nbsp;&amp;nbsp;&amp;nbsp;&amp;nbsp;&lt;span style=&quot;&quot;&gt;&lt;span style=&quot;&quot;&gt;&amp;nbsp; &amp;nbsp; products:&lt;/span&gt;&lt;/span&gt;&lt;/span&gt;&lt;/span&gt;&lt;/font&gt;&lt;/p&gt;&lt;p style=&quot;border-color: var(--border-color); font-weight: 400; box-sizing: border-box; outline: 0px; padding: 0px; margin: 0px; cursor: text; counter-reset: list-1 0 list-2 0 list-3 0 list-4 0 list-5 0 list-6 0 list-7 0 list-8 0 list-9 0; font-family: Helvetica, Arial, sans-serif; font-size: 12px;&quot;&gt;&lt;font style=&quot;border-color: var(--border-color); font-size: 12px;&quot;&gt;&lt;span style=&quot;border-color: var(--border-color);&quot;&gt;&lt;span style=&quot;border-color: var(--border-color);&quot;&gt;&lt;span style=&quot;&quot;&gt;&lt;span style=&quot;&quot;&gt;&lt;span style=&quot;white-space: pre;&quot;&gt;&#x9;&lt;/span&gt;&lt;span style=&quot;white-space: pre;&quot;&gt;&#x9;&lt;/span&gt;products 0:&lt;br&gt;&lt;/span&gt;&lt;/span&gt;&lt;/span&gt;&lt;/span&gt;&lt;/font&gt;&lt;/p&gt;&lt;p style=&quot;border-color: var(--border-color); font-weight: 400; box-sizing: border-box; outline: 0px; padding: 0px; margin: 0px; cursor: text; counter-reset: list-1 0 list-2 0 list-3 0 list-4 0 list-5 0 list-6 0 list-7 0 list-8 0 list-9 0; font-family: Helvetica, Arial, sans-serif; font-size: 12px;&quot;&gt;&lt;font style=&quot;border-color: var(--border-color); font-size: 12px;&quot;&gt;&lt;span style=&quot;border-color: var(--border-color);&quot;&gt;&lt;span style=&quot;border-color: var(--border-color);&quot;&gt;&lt;span style=&quot;&quot;&gt;&lt;span style=&quot;&quot;&gt;&lt;span style=&quot;white-space: pre;&quot;&gt;&#x9;&lt;/span&gt;&lt;span style=&quot;white-space: pre;&quot;&gt;&#x9;&lt;/span&gt;{&lt;br&gt;&lt;/span&gt;&lt;/span&gt;&lt;/span&gt;&lt;/span&gt;&lt;/font&gt;&lt;/p&gt;&lt;p style=&quot;border-color: var(--border-color); font-weight: 400; box-sizing: border-box; outline: 0px; padding: 0px; margin: 0px; cursor: text; counter-reset: list-1 0 list-2 0 list-3 0 list-4 0 list-5 0 list-6 0 list-7 0 list-8 0 list-9 0; font-family: Helvetica, Arial, sans-serif; font-size: 12px;&quot;&gt;&lt;font style=&quot;border-color: var(--border-color); font-size: 12px;&quot;&gt;&lt;span style=&quot;border-color: var(--border-color);&quot;&gt;&lt;span style=&quot;border-color: var(--border-color);&quot;&gt;&lt;span style=&quot;&quot;&gt;&lt;span style=&quot;&quot;&gt;&lt;span style=&quot;white-space: pre;&quot;&gt;&#x9;&lt;/span&gt;&lt;span style=&quot;white-space: pre;&quot;&gt;&#x9;&lt;/span&gt;category: String (Reference to Category Doc)&lt;br&gt;&lt;/span&gt;&lt;/span&gt;&lt;/span&gt;&lt;/span&gt;&lt;/font&gt;&lt;/p&gt;&lt;p style=&quot;border-color: var(--border-color); font-weight: 400; box-sizing: border-box; outline: 0px; padding: 0px; margin: 0px; cursor: text; counter-reset: list-1 0 list-2 0 list-3 0 list-4 0 list-5 0 list-6 0 list-7 0 list-8 0 list-9 0; font-family: Helvetica, Arial, sans-serif; font-size: 12px;&quot;&gt;&lt;font style=&quot;border-color: var(--border-color); font-size: 12px;&quot;&gt;&lt;span style=&quot;border-color: var(--border-color);&quot;&gt;&lt;span style=&quot;border-color: var(--border-color);&quot;&gt;&lt;span style=&quot;&quot;&gt;&lt;span style=&quot;&quot;&gt;&lt;span style=&quot;white-space: pre;&quot;&gt;&#x9;&lt;/span&gt;&lt;span style=&quot;white-space: pre;&quot;&gt;&#x9;&lt;/span&gt;image: String&lt;br&gt;&lt;/span&gt;&lt;/span&gt;&lt;/span&gt;&lt;/span&gt;&lt;/font&gt;&lt;/p&gt;&lt;p style=&quot;border-color: var(--border-color); font-weight: 400; box-sizing: border-box; outline: 0px; padding: 0px; margin: 0px; cursor: text; counter-reset: list-1 0 list-2 0 list-3 0 list-4 0 list-5 0 list-6 0 list-7 0 list-8 0 list-9 0; font-family: Helvetica, Arial, sans-serif; font-size: 12px;&quot;&gt;&lt;font style=&quot;border-color: var(--border-color); font-size: 12px;&quot;&gt;&lt;span style=&quot;border-color: var(--border-color);&quot;&gt;&lt;span style=&quot;border-color: var(--border-color);&quot;&gt;&lt;span style=&quot;&quot;&gt;&lt;span style=&quot;&quot;&gt;&lt;span style=&quot;white-space: pre;&quot;&gt;&#x9;&lt;/span&gt;&lt;span style=&quot;white-space: pre;&quot;&gt;&#x9;&lt;/span&gt;kilo: Number&lt;br&gt;&lt;/span&gt;&lt;/span&gt;&lt;/span&gt;&lt;/span&gt;&lt;/font&gt;&lt;/p&gt;&lt;p style=&quot;border-color: var(--border-color); font-weight: 400; box-sizing: border-box; outline: 0px; padding: 0px; margin: 0px; cursor: text; counter-reset: list-1 0 list-2 0 list-3 0 list-4 0 list-5 0 list-6 0 list-7 0 list-8 0 list-9 0; font-family: Helvetica, Arial, sans-serif; font-size: 12px;&quot;&gt;&lt;font style=&quot;border-color: var(--border-color); font-size: 12px;&quot;&gt;&lt;span style=&quot;border-color: var(--border-color);&quot;&gt;&lt;span style=&quot;border-color: var(--border-color);&quot;&gt;&lt;span style=&quot;&quot;&gt;&lt;span style=&quot;&quot;&gt;&lt;span style=&quot;white-space: pre;&quot;&gt;&#x9;&lt;/span&gt;&lt;span style=&quot;white-space: pre;&quot;&gt;&#x9;&lt;/span&gt;price: Number&lt;br&gt;&lt;/span&gt;&lt;/span&gt;&lt;/span&gt;&lt;/span&gt;&lt;/font&gt;&lt;/p&gt;&lt;p style=&quot;border-color: var(--border-color); font-weight: 400; box-sizing: border-box; outline: 0px; padding: 0px; margin: 0px; cursor: text; counter-reset: list-1 0 list-2 0 list-3 0 list-4 0 list-5 0 list-6 0 list-7 0 list-8 0 list-9 0; font-family: Helvetica, Arial, sans-serif; font-size: 12px;&quot;&gt;&lt;font style=&quot;border-color: var(--border-color); font-size: 12px;&quot;&gt;&lt;span style=&quot;border-color: var(--border-color);&quot;&gt;&lt;span style=&quot;border-color: var(--border-color);&quot;&gt;&lt;span style=&quot;&quot;&gt;&lt;span style=&quot;&quot;&gt;&lt;span style=&quot;white-space: pre;&quot;&gt;&#x9;&lt;/span&gt;&lt;span style=&quot;white-space: pre;&quot;&gt;&#x9;&lt;/span&gt;name: String&lt;br&gt;&lt;/span&gt;&lt;/span&gt;&lt;/span&gt;&lt;/span&gt;&lt;/font&gt;&lt;/p&gt;&lt;p style=&quot;border-color: var(--border-color); font-weight: 400; box-sizing: border-box; outline: 0px; padding: 0px; margin: 0px; cursor: text; counter-reset: list-1 0 list-2 0 list-3 0 list-4 0 list-5 0 list-6 0 list-7 0 list-8 0 list-9 0; font-family: Helvetica, Arial, sans-serif; font-size: 12px;&quot;&gt;&lt;span style=&quot;white-space: pre;&quot;&gt;&#x9;&lt;/span&gt;&lt;span style=&quot;white-space: pre;&quot;&gt;&#x9;&lt;/span&gt;origin: String (Reference to Origin Doc)&lt;br&gt;&lt;/p&gt;&lt;p style=&quot;border-color: var(--border-color); font-weight: 400; box-sizing: border-box; outline: 0px; padding: 0px; margin: 0px; cursor: text; counter-reset: list-1 0 list-2 0 list-3 0 list-4 0 list-5 0 list-6 0 list-7 0 list-8 0 list-9 0; font-family: Helvetica, Arial, sans-serif; font-size: 12px;&quot;&gt;&lt;span style=&quot;white-space: pre;&quot;&gt;&#x9;&lt;/span&gt;&lt;span style=&quot;white-space: pre;&quot;&gt;&#x9;&lt;/span&gt;product_id: String (Reference to Product Doc&lt;span style=&quot;background-color: initial;&quot;&gt;)&lt;/span&gt;&lt;/p&gt;&lt;p style=&quot;border-color: var(--border-color); font-weight: 400; box-sizing: border-box; outline: 0px; padding: 0px; margin: 0px; cursor: text; counter-reset: list-1 0 list-2 0 list-3 0 list-4 0 list-5 0 list-6 0 list-7 0 list-8 0 list-9 0; font-family: Helvetica, Arial, sans-serif; font-size: 12px;&quot;&gt;&lt;span style=&quot;background-color: initial;&quot;&gt;&lt;span style=&quot;white-space: pre;&quot;&gt;&#x9;&lt;/span&gt;&lt;span style=&quot;white-space: pre;&quot;&gt;&#x9;&lt;/span&gt;quantity_buy: Number&lt;br&gt;&lt;/span&gt;&lt;/p&gt;&lt;p style=&quot;border-color: var(--border-color); font-weight: 400; box-sizing: border-box; outline: 0px; padding: 0px; margin: 0px; cursor: text; counter-reset: list-1 0 list-2 0 list-3 0 list-4 0 list-5 0 list-6 0 list-7 0 list-8 0 list-9 0; font-family: Helvetica, Arial, sans-serif; font-size: 12px;&quot;&gt;&lt;font style=&quot;border-color: var(--border-color); font-size: 12px;&quot;&gt;&lt;span style=&quot;border-color: var(--border-color);&quot;&gt;&lt;span style=&quot;border-color: var(--border-color);&quot;&gt;&lt;span style=&quot;&quot;&gt;&lt;span style=&quot;&quot;&gt;&lt;span style=&quot;white-space: pre;&quot;&gt;&#x9;&lt;/span&gt;&lt;span style=&quot;white-space: pre;&quot;&gt;&#x9;&lt;/span&gt;}&lt;br&gt;&lt;/span&gt;&lt;/span&gt;&lt;/span&gt;&lt;/span&gt;&lt;/font&gt;&lt;/p&gt;&lt;p style=&quot;border-color: var(--border-color); font-weight: 400; box-sizing: border-box; outline: 0px; padding: 0px; margin: 0px; cursor: text; counter-reset: list-1 0 list-2 0 list-3 0 list-4 0 list-5 0 list-6 0 list-7 0 list-8 0 list-9 0; font-family: Helvetica, Arial, sans-serif; font-size: 12px;&quot;&gt;&lt;font style=&quot;border-color: var(--border-color); font-size: 12px;&quot;&gt;&lt;span style=&quot;border-color: var(--border-color);&quot;&gt;&lt;span style=&quot;border-color: var(--border-color);&quot;&gt;&lt;span style=&quot;&quot;&gt;&lt;span style=&quot;&quot;&gt;&lt;span style=&quot;white-space: pre;&quot;&gt;&#x9;&lt;/span&gt;&lt;span style=&quot;white-space: pre;&quot;&gt;&#x9;&lt;/span&gt;products 1:&lt;br&gt;&lt;/span&gt;&lt;/span&gt;&lt;/span&gt;&lt;/span&gt;&lt;/font&gt;&lt;/p&gt;&lt;p style=&quot;border-color: var(--border-color); font-weight: 400; box-sizing: border-box; outline: 0px; padding: 0px; margin: 0px; cursor: text; counter-reset: list-1 0 list-2 0 list-3 0 list-4 0 list-5 0 list-6 0 list-7 0 list-8 0 list-9 0; font-family: Helvetica, Arial, sans-serif; font-size: 12px;&quot;&gt;&lt;font style=&quot;border-color: var(--border-color); font-size: 12px;&quot;&gt;&lt;span style=&quot;border-color: var(--border-color);&quot;&gt;&lt;span style=&quot;border-color: var(--border-color);&quot;&gt;&lt;span style=&quot;&quot;&gt;&lt;span style=&quot;&quot;&gt;&lt;span style=&quot;white-space: pre;&quot;&gt;&#x9;&lt;/span&gt;&lt;span style=&quot;white-space: pre;&quot;&gt;&#x9;&lt;/span&gt;...&lt;/span&gt;&lt;/span&gt;&lt;/span&gt;&lt;/span&gt;&lt;/font&gt;&lt;/p&gt;&lt;p style=&quot;border-color: var(--border-color); font-weight: 400; box-sizing: border-box; outline: 0px; padding: 0px; margin: 0px; cursor: text; counter-reset: list-1 0 list-2 0 list-3 0 list-4 0 list-5 0 list-6 0 list-7 0 list-8 0 list-9 0; font-family: Helvetica, Arial, sans-serif; font-size: 12px;&quot;&gt;&lt;span style=&quot;background-color: initial;&quot;&gt;&lt;span style=&quot;white-space: pre;&quot;&gt;&#x9;&lt;/span&gt;}&lt;/span&gt;&lt;/p&gt;&lt;p style=&quot;border-color: var(--border-color); font-weight: 400; box-sizing: border-box; outline: 0px; padding: 0px; margin: 0px; cursor: text; counter-reset: list-1 0 list-2 0 list-3 0 list-4 0 list-5 0 list-6 0 list-7 0 list-8 0 list-9 0; font-family: Helvetica, Arial, sans-serif; font-size: 12px;&quot;&gt;&lt;font style=&quot;border-color: var(--border-color); font-size: 12px;&quot;&gt;Document2:&lt;/font&gt;&lt;/p&gt;&lt;p style=&quot;border-color: var(--border-color); font-weight: 400; box-sizing: border-box; outline: 0px; padding: 0px; margin: 0px; cursor: text; counter-reset: list-1 0 list-2 0 list-3 0 list-4 0 list-5 0 list-6 0 list-7 0 list-8 0 list-9 0; font-family: Helvetica, Arial, sans-serif; font-size: 12px;&quot;&gt;&lt;font style=&quot;border-color: var(--border-color); font-size: 12px;&quot;&gt;.....&lt;/font&gt;&lt;/p&gt;&lt;p style=&quot;border-color: var(--border-color); font-weight: 400; box-sizing: border-box; outline: 0px; padding: 0px; margin: 0px; cursor: text; counter-reset: list-1 0 list-2 0 list-3 0 list-4 0 list-5 0 list-6 0 list-7 0 list-8 0 list-9 0; font-family: Helvetica, Arial, sans-serif; font-size: 12px;&quot;&gt;&lt;font style=&quot;border-color: var(--border-color); font-size: 12px;&quot;&gt;}&lt;/font&gt;&lt;/p&gt;&lt;/h1&gt;" style="text;html=1;strokeColor=#d6b656;fillColor=#fff2cc;spacing=5;spacingTop=-20;whiteSpace=wrap;overflow=hidden;rounded=0;strokeWidth=1;" vertex="1" parent="WIyWlLk6GJQsqaUBKTNV-1">
          <mxGeometry x="312" y="1330" width="320" height="310" as="geometry" />
        </mxCell>
        <mxCell id="Oh3bj5b4CMPEpTqmPRJW-4" value="&lt;h1&gt;&lt;p style=&quot;border-color: var(--border-color); font-weight: 400; box-sizing: border-box; outline: 0px; padding: 0px; margin: 0px; cursor: text; counter-reset: list-1 0 list-2 0 list-3 0 list-4 0 list-5 0 list-6 0 list-7 0 list-8 0 list-9 0; font-family: Helvetica, Arial, sans-serif; font-size: 12px;&quot;&gt;&lt;font style=&quot;border-color: var(--border-color); font-size: 12px;&quot;&gt;{&lt;/font&gt;&lt;/p&gt;&lt;p style=&quot;border-color: var(--border-color); font-weight: 400; box-sizing: border-box; outline: 0px; padding: 0px; margin: 0px; cursor: text; counter-reset: list-1 0 list-2 0 list-3 0 list-4 0 list-5 0 list-6 0 list-7 0 list-8 0 list-9 0; font-family: Helvetica, Arial, sans-serif; font-size: 12px;&quot;&gt;&lt;font style=&quot;border-color: var(--border-color); font-size: 12px;&quot;&gt;Collection: Status&lt;/font&gt;&lt;/p&gt;&lt;p style=&quot;border-color: var(--border-color); font-weight: 400; box-sizing: border-box; outline: 0px; padding: 0px; margin: 0px; cursor: text; counter-reset: list-1 0 list-2 0 list-3 0 list-4 0 list-5 0 list-6 0 list-7 0 list-8 0 list-9 0; font-family: Helvetica, Arial, sans-serif; font-size: 12px;&quot;&gt;&lt;font style=&quot;border-color: var(--border-color); font-size: 12px;&quot;&gt;Document 1:&lt;/font&gt;&lt;/p&gt;&lt;p style=&quot;border-color: var(--border-color); font-weight: 400; box-sizing: border-box; outline: 0px; padding: 0px; margin: 0px; cursor: text; counter-reset: list-1 0 list-2 0 list-3 0 list-4 0 list-5 0 list-6 0 list-7 0 list-8 0 list-9 0; font-family: Helvetica, Arial, sans-serif; font-size: 12px;&quot;&gt;&lt;font style=&quot;border-color: var(--border-color); font-size: 12px;&quot;&gt;&amp;nbsp;&amp;nbsp;&amp;nbsp;&amp;nbsp;&lt;span style=&quot;white-space: pre;&quot;&gt;&#x9;&lt;/span&gt;{&lt;/font&gt;&lt;/p&gt;&lt;p style=&quot;border-color: var(--border-color); font-weight: 400; box-sizing: border-box; outline: 0px; padding: 0px; margin: 0px; cursor: text; counter-reset: list-1 0 list-2 0 list-3 0 list-4 0 list-5 0 list-6 0 list-7 0 list-8 0 list-9 0; font-family: Helvetica, Arial, sans-serif; font-size: 12px;&quot;&gt;&lt;font style=&quot;border-color: var(--border-color); font-size: 12px;&quot;&gt;&lt;span style=&quot;border-color: var(--border-color); box-sizing: border-box; outline: 0px; background-color: rgb(0, 0, 0); padding-bottom: 5px !important;&quot;&gt;&lt;/span&gt;&lt;span style=&quot;border-color: var(--border-color);&quot;&gt;&lt;span style=&quot;border-color: var(--border-color);&quot;&gt;&amp;nbsp;&amp;nbsp;&amp;nbsp;&amp;nbsp;&lt;span style=&quot;&quot;&gt;&lt;span style=&quot;&quot;&gt;&amp;nbsp; &amp;nbsp; status&lt;/span&gt;&lt;/span&gt;&lt;/span&gt;&lt;/span&gt;_id: String&lt;/font&gt;&lt;/p&gt;&lt;p style=&quot;border-color: var(--border-color); font-weight: 400; box-sizing: border-box; outline: 0px; padding: 0px; margin: 0px; cursor: text; counter-reset: list-1 0 list-2 0 list-3 0 list-4 0 list-5 0 list-6 0 list-7 0 list-8 0 list-9 0; font-family: Helvetica, Arial, sans-serif; font-size: 12px;&quot;&gt;&lt;font style=&quot;border-color: var(--border-color); font-size: 12px;&quot;&gt;&lt;span style=&quot;border-color: var(--border-color);&quot;&gt;&amp;nbsp;&amp;nbsp;&amp;nbsp;&amp;nbsp;&lt;span style=&quot;border-color: var(--border-color);&quot;&gt;&lt;span style=&quot;border-color: var(--border-color);&quot;&gt;&amp;nbsp; &amp;nbsp;&amp;nbsp;&lt;/span&gt;&lt;/span&gt;&lt;/span&gt;&lt;span style=&quot;border-color: var(--border-color); box-sizing: border-box; outline: 0px; padding-bottom: 5px !important;&quot;&gt;status_code: String&lt;/span&gt;&lt;/font&gt;&lt;/p&gt;&lt;p style=&quot;border-color: var(--border-color); font-weight: 400; box-sizing: border-box; outline: 0px; padding: 0px; margin: 0px; cursor: text; counter-reset: list-1 0 list-2 0 list-3 0 list-4 0 list-5 0 list-6 0 list-7 0 list-8 0 list-9 0; font-family: Helvetica, Arial, sans-serif; font-size: 12px;&quot;&gt;&lt;font style=&quot;border-color: var(--border-color); font-size: 12px;&quot;&gt;&lt;span style=&quot;border-color: var(--border-color);&quot;&gt;&amp;nbsp;&amp;nbsp;&amp;nbsp;&amp;nbsp;&lt;span style=&quot;border-color: var(--border-color);&quot;&gt;&lt;span style=&quot;border-color: var(--border-color);&quot;&gt;&amp;nbsp; &amp;nbsp;&amp;nbsp;&lt;/span&gt;&lt;/span&gt;&lt;/span&gt;&lt;span style=&quot;border-color: var(--border-color); box-sizing: border-box; outline: 0px; padding-bottom: 5px !important;&quot;&gt;color: String&lt;/span&gt;&lt;/font&gt;&lt;span style=&quot;background-color: initial; border-color: var(--border-color);&quot;&gt;&amp;nbsp;&amp;nbsp;&lt;/span&gt;&lt;/p&gt;&lt;p style=&quot;border-color: var(--border-color); font-weight: 400; box-sizing: border-box; outline: 0px; padding: 0px; margin: 0px; cursor: text; counter-reset: list-1 0 list-2 0 list-3 0 list-4 0 list-5 0 list-6 0 list-7 0 list-8 0 list-9 0; font-family: Helvetica, Arial, sans-serif; font-size: 12px;&quot;&gt;&lt;span style=&quot;background-color: initial;&quot;&gt;&lt;span style=&quot;white-space: pre;&quot;&gt;&#x9;&lt;/span&gt;}&lt;/span&gt;&lt;/p&gt;&lt;p style=&quot;border-color: var(--border-color); font-weight: 400; box-sizing: border-box; outline: 0px; padding: 0px; margin: 0px; cursor: text; counter-reset: list-1 0 list-2 0 list-3 0 list-4 0 list-5 0 list-6 0 list-7 0 list-8 0 list-9 0; font-family: Helvetica, Arial, sans-serif; font-size: 12px;&quot;&gt;&lt;font style=&quot;border-color: var(--border-color); font-size: 12px;&quot;&gt;Document2:&lt;/font&gt;&lt;/p&gt;&lt;p style=&quot;border-color: var(--border-color); font-weight: 400; box-sizing: border-box; outline: 0px; padding: 0px; margin: 0px; cursor: text; counter-reset: list-1 0 list-2 0 list-3 0 list-4 0 list-5 0 list-6 0 list-7 0 list-8 0 list-9 0; font-family: Helvetica, Arial, sans-serif; font-size: 12px;&quot;&gt;&lt;font style=&quot;border-color: var(--border-color); font-size: 12px;&quot;&gt;.....&lt;/font&gt;&lt;/p&gt;&lt;p style=&quot;border-color: var(--border-color); font-weight: 400; box-sizing: border-box; outline: 0px; padding: 0px; margin: 0px; cursor: text; counter-reset: list-1 0 list-2 0 list-3 0 list-4 0 list-5 0 list-6 0 list-7 0 list-8 0 list-9 0; font-family: Helvetica, Arial, sans-serif; font-size: 12px;&quot;&gt;&lt;font style=&quot;border-color: var(--border-color); font-size: 12px;&quot;&gt;}&lt;/font&gt;&lt;/p&gt;&lt;/h1&gt;" style="text;html=1;strokeColor=#d6b656;fillColor=#fff2cc;spacing=5;spacingTop=-20;whiteSpace=wrap;overflow=hidden;rounded=0;strokeWidth=1;" vertex="1" parent="WIyWlLk6GJQsqaUBKTNV-1">
          <mxGeometry x="630" y="1310" width="310" height="170" as="geometry" />
        </mxCell>
        <mxCell id="Oh3bj5b4CMPEpTqmPRJW-5" value="&lt;h1&gt;&lt;p style=&quot;border-color: var(--border-color); font-weight: 400; box-sizing: border-box; outline: 0px; padding: 0px; margin: 0px; cursor: text; counter-reset: list-1 0 list-2 0 list-3 0 list-4 0 list-5 0 list-6 0 list-7 0 list-8 0 list-9 0; font-family: Helvetica, Arial, sans-serif; font-size: 12px;&quot;&gt;&lt;font style=&quot;border-color: var(--border-color); font-size: 12px;&quot;&gt;{&lt;/font&gt;&lt;/p&gt;&lt;p style=&quot;border-color: var(--border-color); font-weight: 400; box-sizing: border-box; outline: 0px; padding: 0px; margin: 0px; cursor: text; counter-reset: list-1 0 list-2 0 list-3 0 list-4 0 list-5 0 list-6 0 list-7 0 list-8 0 list-9 0; font-family: Helvetica, Arial, sans-serif; font-size: 12px;&quot;&gt;&lt;font style=&quot;border-color: var(--border-color); font-size: 12px;&quot;&gt;Collection: Banner&lt;/font&gt;&lt;/p&gt;&lt;p style=&quot;border-color: var(--border-color); font-weight: 400; box-sizing: border-box; outline: 0px; padding: 0px; margin: 0px; cursor: text; counter-reset: list-1 0 list-2 0 list-3 0 list-4 0 list-5 0 list-6 0 list-7 0 list-8 0 list-9 0; font-family: Helvetica, Arial, sans-serif; font-size: 12px;&quot;&gt;&lt;font style=&quot;border-color: var(--border-color); font-size: 12px;&quot;&gt;Document 1:&lt;/font&gt;&lt;/p&gt;&lt;p style=&quot;border-color: var(--border-color); font-weight: 400; box-sizing: border-box; outline: 0px; padding: 0px; margin: 0px; cursor: text; counter-reset: list-1 0 list-2 0 list-3 0 list-4 0 list-5 0 list-6 0 list-7 0 list-8 0 list-9 0; font-family: Helvetica, Arial, sans-serif; font-size: 12px;&quot;&gt;&lt;font style=&quot;border-color: var(--border-color); font-size: 12px;&quot;&gt;&amp;nbsp;&amp;nbsp;&amp;nbsp;&amp;nbsp;&lt;span style=&quot;white-space: pre;&quot;&gt;&#x9;&lt;/span&gt;{&lt;/font&gt;&lt;/p&gt;&lt;p style=&quot;border-color: var(--border-color); font-weight: 400; box-sizing: border-box; outline: 0px; padding: 0px; margin: 0px; cursor: text; counter-reset: list-1 0 list-2 0 list-3 0 list-4 0 list-5 0 list-6 0 list-7 0 list-8 0 list-9 0; font-family: Helvetica, Arial, sans-serif; font-size: 12px;&quot;&gt;&lt;font style=&quot;border-color: var(--border-color); font-size: 12px;&quot;&gt;&lt;span style=&quot;border-color: var(--border-color); box-sizing: border-box; outline: 0px; background-color: rgb(0, 0, 0); padding-bottom: 5px !important;&quot;&gt;&lt;/span&gt;&lt;span style=&quot;border-color: var(--border-color);&quot;&gt;&lt;span style=&quot;border-color: var(--border-color);&quot;&gt;&amp;nbsp;&amp;nbsp;&amp;nbsp;&amp;nbsp;&lt;span style=&quot;&quot;&gt;&lt;span style=&quot;&quot;&gt;&amp;nbsp; &amp;nbsp; created_at: Timestamp&lt;/span&gt;&lt;/span&gt;&lt;/span&gt;&lt;/span&gt;&lt;/font&gt;&lt;/p&gt;&lt;p style=&quot;border-color: var(--border-color); font-weight: 400; box-sizing: border-box; outline: 0px; padding: 0px; margin: 0px; cursor: text; counter-reset: list-1 0 list-2 0 list-3 0 list-4 0 list-5 0 list-6 0 list-7 0 list-8 0 list-9 0; font-family: Helvetica, Arial, sans-serif; font-size: 12px;&quot;&gt;&lt;font style=&quot;border-color: var(--border-color); font-size: 12px;&quot;&gt;&lt;span style=&quot;border-color: var(--border-color);&quot;&gt;&amp;nbsp;&amp;nbsp;&amp;nbsp;&amp;nbsp;&lt;span style=&quot;border-color: var(--border-color);&quot;&gt;&lt;span style=&quot;border-color: var(--border-color);&quot;&gt;&amp;nbsp; &amp;nbsp; image: String&lt;/span&gt;&lt;/span&gt;&lt;/span&gt;&lt;/font&gt;&lt;span style=&quot;background-color: initial;&quot;&gt;&amp;nbsp;&lt;/span&gt;&lt;/p&gt;&lt;p style=&quot;border-color: var(--border-color); font-weight: 400; box-sizing: border-box; outline: 0px; padding: 0px; margin: 0px; cursor: text; counter-reset: list-1 0 list-2 0 list-3 0 list-4 0 list-5 0 list-6 0 list-7 0 list-8 0 list-9 0; font-family: Helvetica, Arial, sans-serif; font-size: 12px;&quot;&gt;&lt;span style=&quot;background-color: initial;&quot;&gt;&lt;span style=&quot;white-space: pre;&quot;&gt;&#x9;&lt;/span&gt;}&lt;/span&gt;&lt;/p&gt;&lt;p style=&quot;border-color: var(--border-color); font-weight: 400; box-sizing: border-box; outline: 0px; padding: 0px; margin: 0px; cursor: text; counter-reset: list-1 0 list-2 0 list-3 0 list-4 0 list-5 0 list-6 0 list-7 0 list-8 0 list-9 0; font-family: Helvetica, Arial, sans-serif; font-size: 12px;&quot;&gt;&lt;font style=&quot;border-color: var(--border-color); font-size: 12px;&quot;&gt;Document2:&lt;/font&gt;&lt;/p&gt;&lt;p style=&quot;border-color: var(--border-color); font-weight: 400; box-sizing: border-box; outline: 0px; padding: 0px; margin: 0px; cursor: text; counter-reset: list-1 0 list-2 0 list-3 0 list-4 0 list-5 0 list-6 0 list-7 0 list-8 0 list-9 0; font-family: Helvetica, Arial, sans-serif; font-size: 12px;&quot;&gt;&lt;font style=&quot;border-color: var(--border-color); font-size: 12px;&quot;&gt;.....&lt;/font&gt;&lt;/p&gt;&lt;p style=&quot;border-color: var(--border-color); font-weight: 400; box-sizing: border-box; outline: 0px; padding: 0px; margin: 0px; cursor: text; counter-reset: list-1 0 list-2 0 list-3 0 list-4 0 list-5 0 list-6 0 list-7 0 list-8 0 list-9 0; font-family: Helvetica, Arial, sans-serif; font-size: 12px;&quot;&gt;&lt;font style=&quot;border-color: var(--border-color); font-size: 12px;&quot;&gt;}&lt;/font&gt;&lt;/p&gt;&lt;/h1&gt;" style="text;html=1;strokeColor=#d6b656;fillColor=#fff2cc;spacing=5;spacingTop=-20;whiteSpace=wrap;overflow=hidden;rounded=0;strokeWidth=1;" vertex="1" parent="WIyWlLk6GJQsqaUBKTNV-1">
          <mxGeometry x="942" y="818" width="310" height="170" as="geometry" />
        </mxCell>
      </root>
    </mxGraphModel>
  </diagram>
</mxfile>
